<svg width="224" height="125" viewBox="0 0 224 125" fill="none" xmlns="http://www.w3.org/2000/svg">
<g clip-path="url(#clip0)">
<rect x="46" width="125" height="125" rx="62.5" fill="url(#paint0_linear)"/>
<g clip-path="url(#clip1)">
<path d="M85.316 -10.7917C85.2082 -10.7904 84.7187 -10.6254 84.1784 -10.4071C83.1171 -9.97845 82.9235 -9.92672 82.8771 -10.0557C82.8629 -10.095 82.5907 -10.1563 82.273 -10.1906C81.7754 -10.2444 81.5811 -10.226 80.868 -10.0557C79.8935 -9.82283 79.6109 -9.62434 79.5938 -9.16148C79.578 -8.73091 79.364 -8.49816 78.957 -8.47278C78.596 -8.45026 78.1171 -8.67007 78.1168 -8.85741C78.1168 -8.91184 78.0115 -9.019 77.8808 -9.09518C77.6721 -9.2168 77.601 -9.22019 77.3032 -9.13734C77.1168 -9.08544 76.8646 -9.06271 76.7427 -9.08668C76.5273 -9.12903 76.5188 -9.11885 76.452 -8.73403C76.4042 -8.45904 76.4158 -8.14557 76.4893 -7.70811C76.5475 -7.36155 76.5742 -7.02737 76.5503 -6.96548C76.4502 -6.70634 75.4819 -6.94181 75.5467 -7.20947C75.6615 -7.68411 74.9663 -7.51478 74.611 -6.98222C74.4957 -6.80937 74.3856 -6.52973 74.3663 -6.35825C74.3333 -6.06509 74.3491 -6.03303 74.6388 -5.83488C74.9171 -5.64459 74.9523 -5.58216 75.0005 -5.20449C75.0597 -4.73987 74.9788 -4.56651 74.7029 -4.56618C74.4994 -4.56594 74.2718 -4.91733 74.2714 -5.23219C74.2712 -5.3603 74.2061 -5.51659 74.117 -5.59622C73.9685 -5.72884 73.9408 -5.72936 73.5515 -5.60745C73.3075 -5.53103 73.0587 -5.38629 72.936 -5.24965C72.4549 -4.71416 71.5779 -5.18269 71.5757 -5.97645C71.575 -6.23039 71.5354 -6.31624 71.3489 -6.45227C71.1438 -6.60192 71.0941 -6.60876 70.8339 -6.52307C70.6038 -6.44728 70.5311 -6.37658 70.4783 -6.17272C70.4254 -5.96882 70.4389 -5.89848 70.5436 -5.82287C70.8425 -5.60718 70.4654 -4.42392 70.0019 -4.12498C69.6277 -3.88368 69.0673 -2.73194 69.2122 -2.50296C69.266 -2.418 69.3692 -2.33125 69.4434 -2.30804C69.7103 -2.22457 69.5152 -1.69946 69.2371 -1.75315C69.0766 -1.78414 69.0167 -1.87947 68.8828 -2.32641C68.8139 -2.55638 68.7373 -2.65537 68.6056 -2.68791C68.4134 -2.7354 68.3617 -2.94411 68.5065 -3.08771C68.5524 -3.13321 68.5782 -3.25077 68.5639 -3.34963C68.5304 -3.58186 68.0647 -3.81614 67.8561 -3.70585C67.6253 -3.58378 67.2997 -3.7729 66.8738 -4.27599C66.5315 -4.68029 66.4895 -4.76623 66.5361 -4.97068C66.5653 -5.09891 66.5945 -5.42684 66.6002 -5.69917C66.6103 -6.18665 66.6075 -6.19423 66.3975 -6.21786C66.1757 -6.24281 65.647 -5.97396 65.6472 -5.8361C65.6472 -5.7936 65.4839 -5.46265 65.2848 -5.10011C65.045 -4.66368 64.9314 -4.36991 64.9465 -4.22847C64.9616 -4.08751 64.8697 -3.84879 64.6755 -3.52592C64.3952 -3.05996 64.2202 -2.92114 63.8413 -2.86317C63.7537 -2.84976 63.6406 -2.73013 63.577 -2.58672C63.4815 -2.37139 63.4368 -2.34162 63.2693 -2.38164C63.1615 -2.40739 62.9434 -2.51234 62.7854 -2.61434C62.3909 -2.86899 62.054 -2.85349 61.6497 -2.56301C61.3792 -2.36864 61.277 -2.33671 61.0605 -2.37663C60.8629 -2.41305 60.7436 -2.3866 60.577 -2.26894C60.2772 -2.05723 59.7595 -2.05355 59.6458 -2.26307C59.5345 -2.46818 59.3663 -2.45655 59.3114 -2.23887C59.2608 -2.03849 58.928 -1.85638 58.7271 -1.91919C58.6534 -1.94224 58.5012 -1.88808 58.388 -1.79977C58.2207 -1.66927 58.1837 -1.57848 58.184 -1.29725C58.1844 -0.989432 58.2327 -0.897218 58.6471 -0.402756C58.904 -0.0962373 59.1098 0.224568 59.1099 0.317967C59.11 0.410476 59.1952 0.561147 59.298 0.653386C60.0392 1.31881 59.9818 1.22358 59.9345 1.73097C59.9108 1.98548 59.8696 2.25312 59.8413 2.32619C59.8131 2.39926 59.507 2.59962 59.1609 2.76976C58.6235 3.03401 58.5017 3.06828 58.3239 3.00166C58.1603 2.94033 58.0391 2.9554 57.761 3.07374C57.5664 3.15651 57.3592 3.22418 57.2992 3.22426C57.2392 3.22433 57.1885 3.27581 57.1886 3.33865C57.1887 3.40149 57.2167 3.45288 57.2513 3.45284C57.286 3.45279 57.4518 3.75534 57.6178 4.12606C57.9652 4.90174 58.2878 5.20361 58.7692 5.20304C59.2211 5.2025 59.3468 5.31011 59.3473 5.69034C59.3475 5.89171 59.2936 6.09129 59.2083 6.2023C59.1315 6.30231 58.9276 6.62979 58.7544 6.93125L58.4399 7.47913L58.5224 8.03606C58.5871 8.46417 58.6675 8.67363 58.8651 8.94498C59.1544 9.34214 59.196 9.37427 60.1824 9.91463C60.9913 10.3577 61.3416 10.4069 61.9055 10.153C62.2747 9.98671 62.5487 9.94965 62.4684 10.0785C62.4403 10.1236 62.4923 10.2389 62.5842 10.3355C62.7397 10.4988 62.7444 10.5313 62.6425 10.7734C62.5822 10.9165 62.3336 11.2463 62.0899 11.5073L61.6454 11.9815L61.742 12.3218L61.8411 12.6645L62.4378 12.6637C62.8595 12.6632 63.0592 12.6301 63.1234 12.5534C63.1733 12.4938 63.3595 12.423 63.5371 12.3934C64.1504 12.2915 65.1291 11.6982 65.1287 11.4299C65.1285 11.253 65.6279 10.2551 65.7552 10.177C65.8055 10.1462 65.9524 10.1007 66.0824 10.0743C66.3238 10.0251 66.4704 9.82888 66.546 9.45479C66.6044 9.16599 67.0441 8.75589 67.6083 8.46564L68.1037 8.21034L69.2132 8.49706C70.5638 8.84442 70.715 8.89818 71.0138 9.15192C71.7817 9.8042 72.6906 10.3545 73.4409 10.6202C73.8732 10.7732 74.2893 10.8977 74.3676 10.8976C74.5458 10.8974 75.1783 11.5951 75.3674 12.0009C75.4677 12.2161 75.526 12.5894 75.5662 13.2766C75.5975 13.8114 75.6529 14.2678 75.6901 14.2905C75.7274 14.3132 75.7576 14.4116 75.7578 14.507C75.7579 14.6054 75.8935 14.8176 76.0687 14.9994C76.6388 15.5909 76.9497 16.4629 76.863 17.2218C76.8315 17.4969 76.8643 17.6512 77.0202 17.9548C77.1996 18.3039 77.2467 18.3426 77.5332 18.3803C77.9631 18.4368 78.0987 18.5591 78.0415 18.8439C78.0039 19.0312 78.0387 19.1177 78.2418 19.3245C78.3778 19.463 78.5245 19.5765 78.5669 19.5764C78.9275 19.576 80.0771 20.8936 80.0776 21.3076C80.0778 21.4917 80.0427 21.5506 79.9143 21.5696C79.5117 21.6294 79.5409 22.0539 79.9583 22.2004C80.1383 22.2636 80.19 22.2483 80.3119 22.0881C80.4911 21.8525 80.855 21.8662 81.3297 22.1274C81.5104 22.2268 81.7779 22.3674 81.9244 22.4409C82.2548 22.6066 82.7747 23.1276 82.7772 23.2944C82.7782 23.3627 82.8916 23.6409 83.0305 23.913C83.2583 24.3592 83.3102 24.4093 83.5437 24.4314C83.9604 24.4707 84.8845 25.1333 85.0801 25.5317C85.1697 25.7142 85.2417 25.9158 85.2418 25.9814C85.2419 26.047 85.3547 26.186 85.4924 26.2906C85.9482 26.6367 86.6646 27.356 86.9426 27.748C87.2008 28.1122 87.2581 28.1498 87.9443 28.3824C88.5779 28.5973 88.7142 28.676 88.9965 28.9906C89.1749 29.1893 89.331 29.4206 89.3436 29.5043C89.3602 29.6154 89.4344 29.6627 89.6205 29.6802C89.7609 29.6933 89.9204 29.6669 89.9741 29.6226C90.0279 29.5784 90.2077 29.4967 90.3733 29.4388C90.6467 29.3434 90.7309 29.3505 91.2901 29.5116C91.9337 29.6969 92.2939 29.7345 92.361 29.6269C92.4422 29.4966 92.8569 29.6369 93.0783 29.8689C93.3401 30.1432 93.862 30.9608 94.204 31.6314C94.3322 31.8827 94.4807 32.1739 94.5344 32.2785C94.6117 32.429 94.7011 32.4735 94.9606 32.4923C95.141 32.5053 95.3633 32.4778 95.4538 32.4298C95.5946 32.355 95.6796 32.3822 96.0507 32.6314C96.6079 33.0056 96.6422 33.1002 96.3235 33.3619C95.8396 33.7591 95.7995 33.8009 95.7996 33.9148C95.7998 34.0709 96.017 34.0569 96.3481 33.8808C96.543 33.7772 96.7141 33.7473 96.9279 33.7754C97.1493 33.8045 97.2597 33.7809 97.3344 33.6916C97.3907 33.6243 97.5022 33.57 97.5845 33.5699C97.6668 33.5698 97.8062 33.5319 97.8924 33.4862C98.1267 33.3618 98.4559 33.7086 98.8151 34.4563C99.1483 35.1499 99.1582 35.2053 99.004 35.5178C98.7716 35.9889 98.8186 36.1918 99.2168 36.4221C99.4007 36.5284 99.6 36.6141 99.6598 36.6144C99.7196 36.6147 100.068 36.8885 100.435 37.2228C100.802 37.5572 101.167 37.8314 101.244 37.8313C101.322 37.8312 101.485 37.711 101.603 37.5642C101.979 37.096 102.436 37.2646 102.838 38.0198C103.057 38.4322 103.103 38.6159 103.173 39.3144C103.222 39.7942 103.537 40.4844 103.972 41.0654C104.25 41.4377 104.433 42.0001 104.433 42.4836C104.434 42.9192 104.674 43.9494 104.856 44.297C104.929 44.4348 105.055 44.5638 105.136 44.5847C105.33 44.6347 105.337 45.1468 105.149 45.5202C105.018 45.7809 105.007 45.7864 104.61 45.7613C104.26 45.7391 104.152 45.7692 103.819 45.9812C103.49 46.191 103.283 46.4039 103.283 46.5365C103.283 46.5553 103.35 46.587 103.43 46.6077C103.51 46.6284 103.63 46.7272 103.695 46.8264C103.798 46.9833 103.801 47.063 103.712 47.4382C103.564 48.0707 103.238 48.6198 102.956 48.7174C102.654 48.8219 102.593 48.8182 102.593 48.6988C102.593 48.6446 102.459 48.5663 102.294 48.523C102.008 48.4477 101.942 48.468 100.846 49.0103L99.7017 49.5782L99.3959 49.4524C99.2283 49.3829 98.9091 49.3272 98.686 49.3271C98.3389 49.3269 98.2243 49.3672 97.8923 49.6089C97.2052 50.1092 95.896 50.3479 94.753 50.1839C94.1427 50.0964 94.1204 50.0995 93.7931 50.2898C93.259 50.6003 92.9424 50.5596 92.0003 50.0611C91.3565 49.7204 91.1985 49.6063 91.1984 49.4717C91.1982 49.3795 91.1481 49.2337 91.0873 49.148C90.9831 49.0013 90.9446 48.9974 90.3966 49.0751C89.9294 49.1413 89.7741 49.1963 89.6054 49.3641C89.4409 49.5277 89.4145 49.5941 89.4878 49.6665C89.5393 49.7173 89.5818 49.7861 89.5819 49.8187C89.582 49.8975 89.0057 50.186 88.8484 50.1862C88.7805 50.1863 88.5609 50.0194 88.3596 49.8154L87.9934 49.4445L87.5245 49.7212C87.2657 49.8734 86.9857 50.0837 86.9043 50.1885C86.7044 50.4459 86.5495 50.9353 86.5735 51.2292C86.5863 51.3858 86.5503 51.4944 86.4704 51.5387C86.363 51.5984 86.3595 51.6581 86.4421 52.0101C86.5231 52.3554 86.6019 52.4716 87.0013 52.8283L87.4662 53.2443L88.1422 53.1912C88.7855 53.1406 88.8328 53.1462 89.1072 53.3328C89.2658 53.4407 89.5497 53.5624 89.7404 53.6035C90.0101 53.6615 90.1639 53.7625 90.4339 54.0573C90.7566 54.4096 91.7225 54.9818 91.9941 54.9814C92.0491 54.9814 92.2394 55.1318 92.4156 55.3166C92.5964 55.5063 92.9511 55.7547 93.2319 55.8869C93.6915 56.1032 93.7742 56.1188 94.298 56.0761C94.8106 56.0343 94.8965 56.0475 95.2101 56.2226C95.687 56.4889 96.1133 56.9163 96.3978 57.4138C96.6212 57.8045 96.6879 57.856 97.3972 58.2053C98.0914 58.547 98.1814 58.5748 98.4394 58.5063C98.7754 58.4172 99.4436 58.5544 99.5634 58.7383C99.6607 58.8878 99.9779 58.8926 100.035 58.7449C100.059 58.6833 100.02 58.4834 99.9502 58.3022C99.8299 57.9917 99.8309 57.9508 99.9638 57.5952C100.077 57.2933 100.186 57.1657 100.507 56.9518C100.908 56.6846 100.908 56.6839 100.889 56.3039C100.873 55.993 100.843 55.9181 100.717 55.8947C100.385 55.8326 99.8386 54.7117 99.8176 54.0485C99.8046 53.6354 99.8243 53.5694 100.002 53.4223C100.217 53.2444 100.442 52.6054 100.441 52.172C100.441 51.8983 100.738 51.4111 101.486 50.4568C101.744 50.1267 101.951 49.7581 102.062 49.4278C102.157 49.1448 102.249 48.9648 102.266 49.0276C102.283 49.0905 102.334 49.2164 102.379 49.3084C102.427 49.4045 102.444 49.6899 102.421 49.9773C102.384 50.4462 102.396 50.4903 102.598 50.7031C102.716 50.828 102.858 50.9335 102.915 50.936C104.308 50.9975 104.566 50.9876 104.698 50.8696C104.888 50.7006 105.038 50.3479 105.094 49.9384C105.16 49.4611 105.93 48.5315 106.32 48.4587C106.477 48.4293 106.709 48.2862 106.897 48.1057C107.204 47.8099 107.212 47.7911 107.211 47.2888C107.21 47.006 107.16 46.5952 107.101 46.3772C106.946 45.8014 107.119 45.4827 107.812 45.0671C108.517 44.6446 108.955 44.5188 109.359 44.6249C109.531 44.6703 109.672 44.7341 109.672 44.7674C109.672 44.8006 109.722 44.8292 109.785 44.8291C110.074 44.8288 110.245 43.9538 110.014 43.6529C109.874 43.4701 109.858 42.3195 109.988 41.8057C110.071 41.477 110.066 41.4479 109.891 41.3155C109.79 41.2382 109.585 41.1206 109.436 41.0518C109.288 40.983 108.902 40.7249 108.577 40.4791C108.075 40.0995 107.938 40.0324 107.667 40.0327C107.491 40.0329 107.279 39.9979 107.197 39.9547C107.036 39.8696 106.739 39.3536 106.739 39.1578C106.739 39.0913 106.879 38.7856 107.049 38.479C107.301 38.0228 107.353 37.8554 107.341 37.555C107.328 37.2317 107.356 37.1635 107.562 36.9906C107.801 36.7898 108.045 36.3907 108.045 36.2021C108.044 36.1441 108.183 35.9008 108.352 35.6614C108.521 35.4219 108.659 35.2014 108.659 35.1706C108.659 35.0745 109.223 34.5335 109.388 34.4723C109.473 34.4403 109.774 34.4459 110.054 34.4858L110.564 34.559L110.379 34.7544C110.278 34.8627 110.207 34.9855 110.221 35.026C110.234 35.0664 110.522 35.2562 110.859 35.4489C111.402 35.7595 111.519 35.7999 111.894 35.7881C112.479 35.7697 113.429 35.9049 113.631 36.036C113.895 36.2063 114.309 37.1621 114.266 37.4992C114.246 37.6526 114.27 37.8727 114.319 37.9895C114.444 38.2842 115.101 38.8041 115.353 38.8072C115.464 38.8085 115.641 38.8588 115.747 38.9186C115.853 38.9783 116.018 39.0286 116.113 39.03C116.274 39.0323 116.286 38.9993 116.286 38.5728C116.285 38.0514 116.405 37.7103 116.698 37.3963C116.966 37.1098 116.953 36.8813 116.637 36.2038C116.362 35.6162 116.045 35.2684 115.049 34.4656C114.672 34.1615 114.527 33.988 114.459 33.7617C114.351 33.4034 114.233 33.3081 113.628 33.089C113.375 32.9976 112.838 32.7706 112.434 32.5858C111.819 32.3045 111.594 32.1463 111.044 31.6186C110.339 30.9408 110.132 30.8256 108.576 30.2313C107.153 29.6873 106.826 29.5409 105.688 28.9422C105.094 28.6302 104.533 28.3557 104.438 28.3319C104.343 28.3081 104.159 28.169 104.029 28.0229C103.834 27.8036 103.797 27.7048 103.816 27.4471C103.838 27.1505 103.86 27.1227 104.29 26.9062C104.538 26.781 104.858 26.5611 105.001 26.415C105.301 26.1089 105.332 25.8493 105.13 25.3674C104.958 24.9581 104.671 24.8646 103.873 24.9571C102.843 25.0766 100.346 25.1418 100.159 25.0543C100.064 25.0102 99.8767 24.9333 99.7421 24.8835C99.6074 24.8337 99.4792 24.748 99.4579 24.6934C99.4367 24.6387 99.2356 24.534 99.0101 24.4606C98.27 24.2195 97.8666 23.8924 97.8661 23.5312C97.866 23.3914 97.6863 23.2643 97.3652 23.1771C97.2799 23.154 96.6857 22.6298 96.0453 22.0123C94.7823 20.7944 94.4245 20.2965 94.0883 19.2914C93.9903 18.9982 93.8453 18.5977 93.7672 18.4015C93.6892 18.2053 93.6247 17.923 93.6245 17.7756C93.6242 17.5165 93.2082 16.3264 92.6588 15.0178C92.5125 14.6692 92.4096 14.3376 92.4318 14.2801C92.4787 14.1588 92.031 13.6985 91.8536 13.6857C91.6413 13.6704 91.586 13.6541 91.2904 13.5245C90.9622 13.3806 90.4516 12.9836 89.6359 12.2339C88.8485 11.5102 88.4971 11.2767 88.1068 11.2193C87.8041 11.1747 87.6937 11.0935 87.0977 10.4754C86.7299 10.0939 86.3584 9.66275 86.2713 9.51705C85.8788 8.86065 85.4617 6.4765 85.6148 5.76625C85.7019 5.36197 85.75 5.32471 85.8937 5.55168C85.9466 5.63541 86.0597 5.70383 86.1441 5.70373C86.2636 5.70359 86.2994 5.64894 86.3074 5.45597C86.3151 5.2694 86.3249 5.25207 86.3506 5.38451C86.4019 5.64862 86.5425 5.55147 86.781 5.08882C87.0341 4.59762 87.0357 4.2286 86.7871 4.19377C86.5572 4.16155 86.154 3.72223 85.568 2.86455L85.0595 2.12008L85.3667 1.51508C85.6414 0.973092 85.7283 0.872095 86.1837 0.569073C86.6255 0.275057 86.7181 0.240057 86.8763 0.311163C87.0132 0.372661 87.039 0.418547 86.9776 0.491955C86.9326 0.545787 86.8502 0.572622 86.7948 0.551684C86.6096 0.481608 85.7516 1.45578 85.752 1.736C85.7522 1.90506 85.8822 1.81168 86.0068 1.5524C86.0773 1.40569 86.1924 1.28558 86.2615 1.28549C86.3307 1.28541 86.7542 1.09027 87.2042 0.851133C88.8736 -0.0360681 89.313 -0.241615 89.5416 -0.241887C89.7744 -0.242163 89.7757 -0.245225 89.7289 -0.580132C89.6921 -0.843835 89.712 -0.954217 89.8245 -1.09204L89.9687 -1.26836L90.491 -1.13092C90.7783 -1.05553 91.0831 -0.947193 91.1674 -0.888917C91.3052 -0.793692 91.3073 -0.778297 91.1916 -0.734217C91.027 -0.671476 91.0235 -0.472169 91.1871 -0.472363C91.2555 -0.472444 91.446 -0.547795 91.6104 -0.639497C91.8429 -0.769107 91.9085 -0.853176 91.9083 -1.01358C91.9082 -1.12707 91.9582 -1.23821 92.0187 -1.26128C92.1872 -1.32548 92.7219 -0.90234 92.9435 -0.529199C93.1879 -0.117784 93.1879 -0.0938692 92.9489 -0.0935852C92.8291 -0.0934429 92.7564 -0.0501913 92.7565 0.0209041C92.7567 0.215126 93.5121 0.173508 93.7333 -0.0326266C93.9151 -0.201988 93.9649 -0.365905 93.846 -0.41125C93.8094 -0.425172 93.6731 -0.606046 93.5447 -0.810806C93.3486 -1.12367 93.2341 -1.21377 92.8222 -1.38602C92.4519 -1.54086 92.3125 -1.6431 92.2563 -1.79954C92.2007 -1.95411 92.2097 -2.0234 92.2872 -2.07095C92.3444 -2.10598 92.4081 -2.30943 92.4287 -2.5234C92.4627 -2.87797 92.4506 -2.91144 92.3055 -2.91126C92.2179 -2.91116 92.1248 -2.87677 92.0987 -2.83484C92.0259 -2.71804 91.853 -2.74426 91.8002 -2.87972C91.7365 -3.04358 91.9478 -3.38286 92.2277 -3.56341C92.5781 -3.78939 92.7455 -4.35796 92.4626 -4.36114C92.3885 -4.36197 92.1757 -4.43148 91.9884 -4.5153C91.7551 -4.61969 91.6214 -4.6423 91.5672 -4.5886C91.4416 -4.46405 91.3869 -4.49465 91.3024 -4.73349C91.2288 -4.94158 91.2483 -4.98032 91.5832 -5.29085C91.781 -5.47417 92.1236 -5.72523 92.3453 -5.84877C92.7197 -6.05743 92.903 -6.3051 92.9026 -6.60166C92.9025 -6.73943 91.969 -6.94964 91.1505 -6.99473C90.3797 -7.03719 88.7007 -7.33801 88.3588 -7.49606C88.2529 -7.54503 88.0796 -7.59613 87.9737 -7.60749C86.5746 -7.75761 86.3617 -7.8539 86.0454 -8.47882C85.8058 -8.95227 85.4682 -9.37794 85.3345 -9.37778C85.2202 -9.37765 85.0788 -9.55451 84.9875 -9.81299C84.8962 -10.0718 84.9031 -10.0864 85.2372 -10.256C85.4209 -10.3493 85.4894 -10.7325 85.3329 -10.7918C85.3292 -10.7932 85.3232 -10.7918 85.316 -10.7917L85.316 -10.7917ZM86.6223 11.2734C86.6371 11.2727 86.6485 11.2755 86.6584 11.2853C86.6844 11.3109 86.6856 11.419 86.6587 11.5257C86.6059 11.7348 86.4235 11.7885 86.3556 11.6141C86.3165 11.5136 86.5184 11.2785 86.6223 11.2734Z" fill="url(#paint1_linear)" stroke="black" stroke-width="0.340716"/>
<path d="M83.9663 58.1065C83.7558 57.8145 83.8346 57.6175 84.1622 57.6171C84.4438 57.6168 84.7372 57.9765 84.6143 58.1714C84.4657 58.407 84.1609 58.3765 83.9663 58.1065Z" stroke="black" stroke-width="0.340716"/>
<path d="M85.6839 50.9885C85.6136 50.8079 85.7667 50.6942 86.0019 50.7524C86.1389 50.7863 86.1972 50.8454 86.1804 50.9335C86.1465 51.1118 85.749 51.1559 85.6839 50.9885V50.9885Z" stroke="black" stroke-width="0.340716"/>
<path d="M84.4229 50.6511C84.4227 50.4612 84.5735 50.3676 84.6607 50.5035C84.7729 50.6785 84.7388 50.7984 84.5768 50.7986C84.4759 50.7988 84.423 50.7481 84.4229 50.6511V50.6511Z" stroke="black" stroke-width="0.340716"/>
<path d="M98.9762 48.0084C98.9216 47.9077 98.8997 47.789 98.9274 47.7444C98.9551 47.6999 98.9072 47.6199 98.8209 47.5667C98.6374 47.4535 98.6171 47.2591 98.7753 47.1288C98.9788 46.9612 99.1624 47.0652 99.1745 47.3548C99.1805 47.5008 99.224 47.7166 99.2711 47.8344C99.3889 48.1291 99.3794 48.191 99.2161 48.1912C99.1387 48.1913 99.0307 48.109 98.9762 48.0084V48.0084Z" stroke="black" stroke-width="0.340716"/>
<path d="M98.3191 47.023C98.1294 46.8859 98.2176 46.6695 98.4633 46.6692C98.6917 46.6689 98.7466 46.7397 98.6886 46.9602C98.6386 47.1504 98.5229 47.1701 98.3191 47.023V47.023Z" stroke="black" stroke-width="0.340716"/>
<path d="M89.961 46.0342C89.9609 45.9729 90.0305 45.8857 90.1156 45.8405C90.2365 45.7763 90.28 45.7831 90.3145 45.872C90.3389 45.9345 90.3364 46.0216 90.3091 46.0655C90.2341 46.186 89.9611 46.1615 89.961 46.0342L89.961 46.0342Z" stroke="black" stroke-width="0.340716"/>
<path d="M100.164 45.5251C100.098 45.4207 100.259 45.2197 100.408 45.2196C100.564 45.2194 100.505 45.5538 100.343 45.5845C100.273 45.5978 100.192 45.571 100.164 45.5251V45.5251Z" stroke="black" stroke-width="0.340716"/>
<path d="M95.1835 34.1561C95.1834 34.091 95.2797 34.0313 95.4171 34.0112C95.5997 33.9844 95.6459 34.0033 95.628 34.0975C95.5979 34.2557 95.1836 34.3103 95.1835 34.1561V34.1561Z" stroke="black" stroke-width="0.340716"/>
<path d="M93.5037 33.1768C93.3798 33.0544 93.3871 32.9222 93.5254 32.785C93.7484 32.5637 94.3049 32.9295 94.1424 33.1906C94.0758 33.2975 93.6158 33.2876 93.5037 33.1768Z" stroke="black" stroke-width="0.340716"/>
<path d="M88.91 31.9854C88.8462 31.8835 88.9379 31.6926 89.0759 31.64C89.2401 31.5774 89.2672 31.6215 89.2083 31.855C89.159 32.0505 88.9955 32.1219 88.91 31.9854V31.9854Z" stroke="black" stroke-width="0.340716"/>
<path d="M68.1793 44.8468C68.0417 44.7716 67.941 44.7664 67.7812 44.8263C67.5021 44.9309 67.3927 44.8395 67.1584 44.3058C66.9365 43.8002 66.7687 43.7638 66.6392 44.1932C66.4839 44.7082 66.2071 44.5242 65.9761 43.7524C65.9103 43.5324 66.0508 43.356 66.2921 43.3557C66.522 43.3555 66.5209 43.315 66.2822 43.0062C66.0494 42.7049 66.0458 42.6569 66.2431 42.4798C66.4317 42.3106 66.4414 42.093 66.2648 41.9955C66.0979 41.9033 66.1156 41.5475 66.3237 40.8103C66.4401 40.3977 66.464 40.1562 66.4248 39.7859C66.3855 39.4149 66.3984 39.2858 66.4796 39.2348C66.6365 39.1362 66.7011 39.1512 66.7013 39.2863C66.7014 39.3526 66.7446 39.3926 66.7974 39.3751C66.9124 39.3371 67.0132 38.8178 66.9539 38.5692C66.9143 38.4036 66.8864 38.3955 66.5254 38.4451L66.1392 38.4981L66.1885 38.1275C66.2155 37.9237 66.3067 37.5765 66.3911 37.356C66.6302 36.7313 66.6009 35.9614 66.3105 35.2406C65.8846 34.1836 65.7275 33.933 65.4673 33.8955C65.288 33.8697 65.2231 33.8952 65.188 34.0052C65.1628 34.084 65.1018 34.1353 65.0525 34.1193C64.931 34.0799 64.8907 33.7618 64.9942 33.6591C65.0959 33.5582 65.1036 33.2073 65.0062 33.108C64.963 33.0639 64.9821 32.7981 65.0554 32.4262C65.2279 31.5502 65.3404 31.4459 65.6331 31.8907C65.8314 32.1919 66.1035 32.3107 66.5941 32.3101C66.979 32.3097 67.1821 32.222 67.4159 31.9552C67.5149 31.8424 67.6975 31.7527 67.8857 31.7246C68.1798 31.6808 68.5399 31.4455 68.5397 31.2974C68.5395 31.135 69.2808 30.3856 69.6261 30.1991C69.8944 30.0542 70.001 29.9503 70.0009 29.8336C70.0006 29.6323 70.1382 29.4875 70.33 29.4873C70.4096 29.4872 70.8457 29.6742 71.2989 29.9029C72.0959 30.305 72.13 30.3327 72.3332 30.7413C72.5935 31.2648 72.5934 31.3046 72.332 31.5169C72.1667 31.6511 72.1496 31.6893 72.2536 31.6913C72.4759 31.6956 73.0845 33.0404 73.0851 33.5285C73.0853 33.7221 73.1475 33.8871 73.2781 34.0403C73.3842 34.1647 73.471 34.3236 73.4711 34.3934C73.4714 34.6594 73.2155 35.2812 73.0751 35.3558C72.8223 35.4901 72.4721 36.04 72.4724 36.3023C72.4726 36.447 72.5661 36.682 72.7027 36.8809C72.9731 37.2748 72.9973 37.6087 72.8215 38.5233C72.7584 38.8517 72.7071 39.4246 72.7075 39.7962C72.7081 40.2774 72.64 40.7712 72.4712 41.5104C72.3408 42.0816 72.2246 42.7156 72.213 42.9194C72.1894 43.3332 72.103 43.4221 71.7227 43.4243C71.5334 43.4254 71.3775 43.3497 71.135 43.139C70.8605 42.9006 70.6963 42.8301 70.1602 42.7209C69.8056 42.6486 69.4896 42.5897 69.4578 42.5899C69.3737 42.5905 69.3878 43.1327 69.4833 43.5708C69.5834 44.03 69.49 44.2532 69.0223 44.6722C68.6919 44.9682 68.4811 45.0119 68.1793 44.8468Z" fill="url(#paint2_linear)" stroke="black" stroke-width="0.340716"/>
<path d="M65.4441 43.3973C65.2717 43.1374 65.2855 43.0846 65.5544 42.974C65.8634 42.8468 65.9707 42.951 65.9027 43.3122C65.8408 43.6408 65.6315 43.6797 65.4441 43.3973V43.3973Z" stroke="black" stroke-width="0.340716"/>
<path d="M65.3385 31.2C65.3958 30.9726 65.7179 30.4447 65.848 30.3649C65.9648 30.2932 66.0707 30.4675 66.0725 30.7344C66.0736 30.9007 66.0422 30.9432 65.9319 30.9249C65.7483 30.8943 65.5358 31.0707 65.536 31.2534C65.5361 31.334 65.4822 31.3965 65.4125 31.3965C65.3179 31.3967 65.3005 31.3504 65.3385 31.2V31.2Z" stroke="black" stroke-width="0.340716"/>
<path d="M75.6127 22.4047C75.6125 22.255 75.8049 22.1359 75.9267 22.2102C75.9652 22.2337 75.9968 22.3194 75.9969 22.4006C75.997 22.5074 75.9439 22.5483 75.805 22.5485C75.6677 22.5486 75.6128 22.5076 75.6127 22.4047Z" stroke="black" stroke-width="0.340716"/>
<path d="M78.6244 22.3646C78.4678 22.1999 78.4634 22.1735 78.5745 22.0633C78.7309 21.9081 78.8956 21.9719 78.9565 22.2113C79.0472 22.5673 78.8874 22.6411 78.6244 22.3646V22.3646Z" stroke="black" stroke-width="0.340716"/>
<path d="M74.534 20.7791C74.5358 20.6185 74.6642 20.4712 74.7544 20.5263C74.9046 20.6179 74.8547 20.8738 74.6866 20.874C74.6021 20.8741 74.5334 20.8314 74.534 20.7791Z" stroke="black" stroke-width="0.340716"/>
<path d="M76.1408 19.764C75.9471 19.5728 75.9383 19.5716 75.6035 19.6874C74.9959 19.8975 74.6856 19.8016 74.6852 19.4035C74.685 19.2214 75.1333 19.049 75.3835 19.1349C75.7373 19.2565 76.0184 19.1854 76.134 18.9449C76.3061 18.5871 76.4895 18.7056 76.5181 19.193C76.5439 19.6323 76.4918 19.9582 76.3958 19.9583C76.3638 19.9583 76.2491 19.8709 76.1408 19.764Z" fill="#284409" stroke="black" stroke-width="0.340716"/>
<path d="M73.1896 17.8594C73.1353 17.7199 73.2913 17.3593 73.4247 17.3162C73.5625 17.2716 73.62 17.5591 73.5179 17.7817C73.4151 18.0059 73.2608 18.0424 73.1896 17.8594V17.8594Z" stroke="black" stroke-width="0.340716"/>
</g>
<path d="M54.2179 80.4186L51.8245 81.4204L49.9974 80.8676L46.1435 82.0699L43.3144 84.8287L41.2762 84.7202L35.4061 86.9137L29.5024 89.5669L26.4315 91.984L24.7079 94.5116L21.0114 96.4615L18.2351 99.965L20.4287 102.412L21.4564 105.005L24.1019 109.286L25.3619 109.907L25.1833 111.828L20.5905 114.015L19.3698 116.148L17.3632 117.171L18.1519 120.459L14.2998 123.493L13.5148 126.151L10.8297 128.244L7.29434 130.041L2.1928 135.114L3.69348 140.295L3.78943 140.611L3.9535 141.495L21.1335 147.872L36.6984 153.598L52.39 159.285L53.9224 161.034L56.6813 161.581L58.6342 161.75L59.5419 164.517L63.629 162.83L68.386 159.245L76.7111 147.352L87.0035 135.106L84.4587 132.869L80.8045 131.763L79.3026 133.083L77.2021 131.057L76.4459 129.246L73.1967 126.738L74.0969 124.46L72.8505 121.83L72.5646 119.289L71.6434 117.39L71.1292 113.639L70.2617 111.689L67.7927 108.218L63.6177 100.943L60.7686 99.8704L60.3886 98.8446L56.5204 97.1469L55.1108 93.9782L56.5791 90.8364L56.2261 86.9326L54.212 82.9098L54.2179 80.4186V80.4186Z" fill="url(#paint3_linear)" stroke="black" stroke-width="0.330897" stroke-linejoin="round"/>
<path d="M136.987 83.83L132.835 83.7051L128.838 83.6369L123.917 85.197L123.379 87.6421L124.642 89.2995L124.697 92.2215L127.102 95.3653L132.741 110.668L138.322 126.576L153.554 121.96L168.248 117.508L183.259 112.96L182.293 112.284L176.448 109.768L175.3 107.004L175.766 106.033L170.624 102.301L168.473 100.221L166.202 98.3165L160.804 92.4838L156.81 88.8879L153.487 84.8814L153.711 84.3641L158.809 89.6653L161.241 91.0722L163.025 92.053L163.586 91.0531L163.75 88.5139L163.259 85.0669L163.608 83.0248L162.797 82.0604L158.177 76.5107L156.793 78.1056L153.803 78.735L150.456 78.6427L150.159 80.2885L148.303 78.4997L145.439 78.7452L142.324 80.104L141.273 81.7708L138.972 83.9894L136.987 83.83V83.83Z" fill="url(#paint4_linear)" stroke="black" stroke-width="0.330897" stroke-linejoin="round"/>
<path d="M123.917 85.197L122.504 84.0694L118.645 84.6854L117.18 84.2996L115.786 84.7217L113.798 83.1805L108.494 83.8195L106.165 85.1475L104.287 87.9639L103.885 90.4023L105.979 93.4329L104.905 95.9365L103.508 97.6043L98.7612 96.657L92.9257 96.4543L89.3099 96.6164L86.1979 93.3065L80.6407 92.8812L77.3166 93.0932L75.9117 93.9338L71.0809 93.7378L72.003 97.1234L70.6134 98.9275L69.9589 100.647L67.9657 103.084L68.9876 104.745L69.2591 106.668L67.7927 108.218L70.2617 111.689L71.1292 113.639L71.6434 117.39L72.5646 119.289L72.8505 121.83L74.0969 124.46L73.1967 126.738L76.4459 129.246L77.2021 131.057L79.3026 133.083L80.8045 131.763L84.4587 132.869L87.0035 135.106L93.5962 135.183L96.5009 136.896L98.64 134.484L101.679 130.936L119.549 134.684L137.514 138.403L136.926 136.576L141.296 135.252L138.322 126.576L132.741 110.668L127.102 95.3653L124.697 92.2215L124.642 89.2995L123.379 87.6421L123.917 85.197Z" fill="url(#paint5_linear)" stroke="black" stroke-width="0.330897" stroke-linejoin="round"/>
<path d="M71.0809 93.7378L69.4448 93.4729L67.7981 91.6899L65.8788 92.2023L64.3896 90.0258L66.0297 87.1086L65.217 83.1712L63.5828 82.4562L62.8958 80.417L63.9658 77.6725L63.4218 76.9038L60.9122 79.4621L60.2627 77.2041L57.5344 77.4429L54.2179 80.4186L54.212 82.9098L56.2261 86.9326L56.5792 90.8364L55.1108 93.9782L56.5204 97.1469L60.3886 98.8446L60.7686 99.8705L63.6177 100.943L67.7927 108.218L69.2591 106.668L68.9876 104.745L67.9656 103.084L69.9589 100.647L70.6134 98.9275L72.003 97.1234L71.0809 93.7378V93.7378Z" fill="url(#paint6_linear)" stroke="black" stroke-width="0.330897" stroke-linejoin="round"/>
</g>
<path d="M84.6496 50.336C84.6176 50.368 84.5696 50.384 84.5056 50.384C84.4416 50.384 84.4096 50.208 84.4096 49.856C84.4096 49.504 84.5696 49.248 84.8896 49.088L85.2256 48.992C86.4736 48.928 87.6576 48.368 88.7776 47.312C89.8976 46.256 90.6976 45.152 91.1776 44L95.5936 32.96C96.5856 30.432 97.7216 28.368 99.0016 26.768C100.538 24.784 102.666 23.792 105.386 23.792C106.826 23.792 108.01 24.048 108.938 24.56C109.866 25.04 110.33 25.68 110.33 26.48C110.33 26.672 110.298 26.912 110.234 27.2C110.17 27.456 109.882 27.952 109.37 28.688C108.858 29.424 108.522 30 108.362 30.416C108.234 30.832 108.058 30.992 107.834 30.896C107.642 30.8 107.61 30.656 107.738 30.464C108.314 29.632 108.602 28.752 108.602 27.824C108.602 26.896 108.394 26.08 107.978 25.376C107.594 24.672 106.938 24.32 106.01 24.32C103.962 24.32 102.362 25.392 101.21 27.536L92.3296 43.904C90.9536 46.4 89.6256 47.904 88.3456 48.416C92.6336 48.416 95.9776 48.416 98.3776 48.416C100.81 48.416 102.186 48.416 102.506 48.416C102.826 48.384 103.194 48.352 103.61 48.32C104.058 48.288 104.426 48.256 104.714 48.224C105.002 48.192 105.29 48.144 105.578 48.08C106.57 47.856 107.066 47.216 107.066 46.16C107.066 45.36 106.634 44.752 105.77 44.336C105.546 44.24 105.514 44.128 105.674 44C105.994 43.776 106.57 44.176 107.402 45.2C108.234 46.192 108.714 46.88 108.842 47.264C109.002 47.648 109.082 48.032 109.082 48.416C109.082 48.8 108.842 49.2 108.362 49.616C107.882 50 106.778 50.192 105.05 50.192C103.322 50.192 100.282 50.032 95.9296 49.712C90.9696 49.392 88.2336 49.232 87.7216 49.232C86.4736 49.232 85.4496 49.6 84.6496 50.336ZM127.172 42.896C127.236 42.96 127.268 43.088 127.268 43.28C127.268 43.472 127.044 43.872 126.596 44.48C123.748 48.256 121.108 50.144 118.676 50.144C117.908 50.144 117.524 49.84 117.524 49.232C117.524 48.112 118.148 46.576 119.396 44.624C118.276 45.808 116.996 47.024 115.556 48.272C114.116 49.488 112.772 50.096 111.524 50.096C110.948 50.096 110.66 49.744 110.66 49.04C110.66 48.88 110.676 48.768 110.708 48.704C110.932 46.88 111.668 44.96 112.916 42.944C115.412 38.912 118.004 36.896 120.692 36.896H126.212C126.372 36.896 126.452 36.96 126.452 37.088C126.452 37.344 126.308 37.472 126.02 37.472C125.572 37.472 125.012 38 124.34 39.056C123.668 40.08 122.772 41.68 121.652 43.856C120.564 46 120.02 47.36 120.02 47.936C120.02 48.48 120.244 48.752 120.692 48.752C121.428 48.752 122.452 48.112 123.764 46.832C124.468 46.096 124.996 45.52 125.348 45.104C125.7 44.688 125.924 44.416 126.02 44.288C126.148 44.16 126.532 43.696 127.172 42.896ZM122.036 38.432C122.036 37.824 121.62 37.52 120.788 37.52C119.988 37.52 119.092 37.984 118.1 38.912C117.108 39.84 116.02 41.344 114.836 43.424C113.684 45.472 113.108 46.96 113.108 47.888C113.108 48.272 113.236 48.464 113.492 48.464C114.42 48.464 116.068 47.056 118.436 44.24C120.836 41.392 122.036 39.456 122.036 38.432ZM54.5555 88.432C52.6355 88.432 51.6755 87.472 51.6755 85.552C51.6755 84.528 51.8995 83.44 52.3475 82.288C52.7955 81.136 53.1155 80.304 53.3075 79.792C53.6595 78.928 54.3475 77.488 55.3715 75.472C56.9715 72.08 58.2355 69.616 59.1635 68.08L45.3395 82.672C45.2435 83.28 44.8275 83.728 44.0915 84.016C43.7715 84.144 43.2115 84.688 42.4115 85.648C42.3795 85.68 42.3155 85.696 42.2195 85.696C42.1235 85.696 42.0275 85.664 41.9315 85.6C41.8675 85.536 41.8515 85.488 41.8835 85.456C42.7155 84.4 43.1475 82.944 43.1795 81.088L43.4675 67.12C43.4675 65.712 43.8515 64.544 44.6195 63.616C43.3395 64.576 42.3795 65.712 41.7395 67.024C41.4835 67.536 40.7955 69.216 39.6755 72.064C37.1155 78.4 34.6515 82.832 32.2835 85.36C31.4835 86.224 30.4595 86.96 29.2115 87.568C27.9635 88.176 26.8115 88.48 25.7555 88.48C24.6995 88.48 23.7395 88.192 22.8755 87.616C21.2755 86.528 20.4755 84.784 20.4755 82.384C20.4755 81.968 20.5395 81.744 20.6675 81.712C20.8915 81.68 21.0035 81.808 21.0035 82.096C21.0035 83.568 21.3555 84.704 22.0595 85.504C22.7955 86.272 23.7555 86.656 24.9395 86.656C26.9875 86.656 29.0355 85.52 31.0835 83.248C32.8115 81.392 34.3955 79.2 35.8355 76.672C36.2515 75.936 36.5555 75.408 36.7475 75.088C36.9395 74.736 37.2435 74.128 37.6595 73.264C38.0755 72.4 38.3475 71.84 38.4755 71.584C39.4675 69.44 40.0435 68.192 40.2035 67.84C41.3875 65.28 43.0515 63.68 45.1955 63.04L45.2435 62.992H42.6035C37.5155 62.992 34.4755 63.728 33.4835 65.2C33.1955 65.648 33.0515 66.08 33.0515 66.496C33.0515 67.904 33.5635 68.848 34.5875 69.328C34.8115 69.424 34.7955 69.536 34.5395 69.664C34.3155 69.792 34.0595 69.792 33.7715 69.664C33.5155 69.504 33.0835 69.088 32.4755 68.416C31.6115 67.392 31.1795 66.496 31.1795 65.728C31.1795 64.96 31.4195 64.288 31.8995 63.712C32.4115 63.136 33.4355 62.72 34.9715 62.464C37.1795 62.048 39.6915 61.84 42.5075 61.84C42.6035 61.84 42.6675 61.84 42.6995 61.84H47.8835C48.1395 61.808 48.1075 61.92 47.7875 62.176C47.4995 62.432 47.3235 62.56 47.2595 62.56C45.7235 62.88 44.9555 64.256 44.9555 66.688C44.9555 69.12 45.0835 73.952 45.3395 81.184V81.472L61.9955 63.904C63.2755 62.56 64.3635 61.584 65.2595 60.976C66.1875 60.336 67.0995 60.016 67.9955 60.016C68.3155 60.016 68.4755 60.048 68.4755 60.112C68.4755 60.144 68.4115 60.24 68.2835 60.4C68.1235 60.56 67.9635 60.64 67.8035 60.64C66.4595 60.64 65.0995 61.76 63.7235 64C61.8355 67.104 59.7715 71.136 57.5315 76.096C55.2915 81.056 54.1715 84.4 54.1715 86.128C54.1715 87.024 54.4755 87.472 55.0835 87.472C55.3075 87.472 55.7395 87.344 56.3795 87.088C57.0515 86.8 57.6915 86.368 58.2995 85.792C58.9395 85.216 59.4675 84.688 59.8835 84.208C60.2995 83.728 60.6355 83.328 60.8915 83.008C61.1475 82.688 61.3875 82.368 61.6115 82.048C61.8675 81.728 62.0115 81.552 62.0435 81.52C62.2355 81.232 62.3635 81.216 62.4275 81.472C62.4915 81.696 62.4595 81.888 62.3315 82.048C62.2355 82.176 62.0435 82.432 61.7555 82.816C61.4675 83.2 61.1955 83.536 60.9395 83.824C60.7155 84.112 60.3955 84.496 59.9795 84.976C59.5955 85.424 59.2275 85.824 58.8755 86.176C57.2755 87.68 55.8355 88.432 54.5555 88.432ZM64.0633 82.288C63.5833 83.536 63.3433 84.704 63.3433 85.792C63.3433 86.848 63.9993 87.376 65.3113 87.376C65.7913 87.376 66.4153 87.232 67.1833 86.944C68.4313 86.528 69.7273 85.728 71.0713 84.544C72.4153 83.36 73.5193 82.208 74.3833 81.088C74.4793 81.184 74.5273 81.312 74.5273 81.472C74.5273 81.632 74.4153 81.872 74.1913 82.192C73.0073 83.824 71.5353 85.264 69.7753 86.512C68.0153 87.76 66.2233 88.384 64.3993 88.384C62.0313 88.384 60.8473 87.52 60.8473 85.792C60.8473 84.416 61.5833 82.512 63.0553 80.08C63.8873 78.768 65.0713 77.552 66.6073 76.432C68.1433 75.28 69.6153 74.704 71.0233 74.704C72.4313 74.704 73.1353 75.376 73.1353 76.72C73.1353 78.128 72.5753 79.2 71.4553 79.936C70.3673 80.64 69.1193 81.216 67.7113 81.664C66.3353 82.08 65.1193 82.288 64.0633 82.288ZM64.4473 81.328C64.6393 81.328 64.9913 81.328 65.5033 81.328C66.0473 81.328 66.6873 81.216 67.4233 80.992C69.2473 80.448 70.4313 79.424 70.9753 77.92C71.1353 77.472 71.2153 77.056 71.2153 76.672C71.2153 76.256 71.0873 75.968 70.8313 75.808C70.5753 75.616 70.3513 75.52 70.1593 75.52C68.0793 75.552 66.1753 77.488 64.4473 81.328ZM100.256 61.984C100.224 61.984 100.176 61.952 100.112 61.888C99.9844 61.12 99.5044 60.576 98.6724 60.256C98.2884 60.128 97.8724 60.064 97.4244 60.064C96.9764 60.064 96.4804 60.16 95.9364 60.352C94.4004 60.896 92.7044 62.816 90.8484 66.112C88.9924 69.408 87.0724 73.248 85.0884 77.632C85.0564 77.664 84.6724 78.448 83.9364 79.984C82.3044 83.376 81.4884 85.36 81.4884 85.936C81.4884 86.48 81.6804 86.752 82.0644 86.752C82.7684 86.752 83.8564 86.032 85.3284 84.592C86.8324 83.12 87.9364 81.888 88.6404 80.896C88.7044 80.96 88.7364 81.104 88.7364 81.328C88.7364 81.52 88.5124 81.904 88.0644 82.48C85.2164 86.256 82.5764 88.144 80.1444 88.144C79.3764 88.144 78.9924 87.84 78.9924 87.232C78.9924 86.112 79.6164 84.576 80.8644 82.624C79.7444 83.808 78.5764 84.928 77.3604 85.984C75.6324 87.392 74.1764 88.096 72.9924 88.096C72.4164 88.096 72.1284 87.744 72.1284 87.04C72.1284 86.88 72.1444 86.768 72.1764 86.704C72.4004 84.912 73.1364 82.992 74.3844 80.944C75.6644 78.896 77.0564 77.296 78.5604 76.144C79.5844 75.312 80.8164 74.896 82.2564 74.896C82.9924 74.896 83.7284 74.896 84.4644 74.896C84.9764 74.032 85.7924 72.544 86.9124 70.432C88.0324 68.288 88.8324 66.816 89.3124 66.016C92.2244 61.088 95.4404 58.624 98.9604 58.624C99.4084 58.624 99.7924 58.752 100.112 59.008C100.464 59.264 100.624 59.616 100.592 60.064L100.496 61.792C100.496 61.92 100.416 61.984 100.256 61.984ZM83.5044 76.432C83.5044 75.824 83.0884 75.52 82.2564 75.52C81.4564 75.52 80.5604 75.984 79.5684 76.912C78.5764 77.84 77.4884 79.344 76.3044 81.424C75.1524 83.472 74.5764 84.96 74.5764 85.888C74.5764 86.272 74.7044 86.464 74.9604 86.464C75.8884 86.464 77.5364 85.056 79.9044 82.24C82.3044 79.392 83.5044 77.456 83.5044 76.432ZM95.0218 85.168C94.4138 85.84 93.5658 86.512 92.4778 87.184C91.4218 87.824 90.4458 88.144 89.5498 88.144C88.6858 88.144 88.2538 87.84 88.2538 87.232C88.2538 86.656 88.4138 86.016 88.7338 85.312C88.9578 84.8 90.2378 82.08 92.5738 77.152C90.8778 78.976 89.3418 80.8 87.9658 82.624C87.7418 82.944 87.6298 82.912 87.6298 82.528C87.6298 82.272 87.7098 82.048 87.8698 81.856C90.1418 79.04 91.8858 76.752 93.1018 74.992C94.7018 74.768 95.6618 74.512 95.9818 74.224C96.3018 73.936 96.4778 73.92 96.5098 74.176C96.5098 74.304 96.4298 74.464 96.2698 74.656C96.1418 74.816 94.8458 77.216 92.3818 81.856C91.2938 83.904 90.7498 85.312 90.7498 86.08C90.7498 86.528 90.9738 86.752 91.4218 86.752C92.4138 86.752 94.2058 85.216 96.7978 82.144L97.8538 80.944C98.2378 81.328 97.2938 82.736 95.0218 85.168ZM97.7098 69.664C96.9418 69.664 96.5578 69.248 96.5578 68.416C96.5578 68.032 96.7658 67.696 97.1818 67.408C97.6298 67.12 98.0138 66.976 98.3338 66.976C98.6858 66.976 98.9578 67.12 99.1498 67.408C99.3418 67.664 99.4378 67.872 99.4378 68.032C99.4378 68.608 99.2298 69.024 98.8138 69.28C98.3978 69.536 98.0298 69.664 97.7098 69.664ZM100.896 74.848L102.384 74.896C103.632 73.2 104.88 70.976 106.128 68.224C106.416 68.192 106.864 68.016 107.472 67.696C108.08 67.344 108.512 67.04 108.768 66.784C109.056 66.496 109.232 66.352 109.296 66.352C109.392 66.352 109.44 66.4 109.44 66.496C109.44 66.56 109.312 66.736 109.056 67.024C108.8 67.312 108.16 68.272 107.136 69.904C106.144 71.504 105.232 73.168 104.4 74.896H108.288C108.608 74.896 108.784 74.944 108.816 75.04C108.848 75.136 108.736 75.232 108.48 75.328C108.256 75.392 108.032 75.456 107.808 75.52C107.616 75.584 107.168 75.648 106.464 75.712C104.896 75.808 103.92 76.128 103.536 76.672C103.184 77.184 102.56 78.528 101.664 80.704C100 84.736 99.7441 86.752 100.896 86.752C101.888 86.752 103.712 85.216 106.368 82.144L107.28 80.992C107.344 81.088 107.376 81.248 107.376 81.472C107.376 81.664 107.2 82 106.848 82.48C103.904 86.256 101.248 88.144 98.8801 88.144C98.1121 88.144 97.7281 87.84 97.7281 87.232C97.7281 86.464 98.3521 84.832 99.6001 82.336L102.192 76.528C98.9281 80.496 97.2641 82.528 97.2001 82.624C96.9761 82.944 96.8641 82.912 96.8641 82.528C96.8641 82.272 96.9441 82.048 97.1041 81.856C99.2801 79.136 100.784 77.232 101.616 76.144C101.328 76.144 100.464 76.224 99.0241 76.384C98.7041 76.384 98.8161 76.128 99.3601 75.616C99.9361 75.104 100.336 74.848 100.56 74.848H100.896ZM108.876 82.288C108.396 83.536 108.156 84.704 108.156 85.792C108.156 86.848 108.812 87.376 110.124 87.376C110.604 87.376 111.228 87.232 111.996 86.944C113.244 86.528 114.54 85.728 115.884 84.544C117.228 83.36 118.332 82.208 119.196 81.088C119.292 81.184 119.34 81.312 119.34 81.472C119.34 81.632 119.228 81.872 119.004 82.192C117.82 83.824 116.348 85.264 114.588 86.512C112.828 87.76 111.036 88.384 109.212 88.384C106.844 88.384 105.66 87.52 105.66 85.792C105.66 84.416 106.396 82.512 107.868 80.08C108.7 78.768 109.884 77.552 111.42 76.432C112.956 75.28 114.428 74.704 115.836 74.704C117.244 74.704 117.948 75.376 117.948 76.72C117.948 78.128 117.388 79.2 116.268 79.936C115.18 80.64 113.932 81.216 112.524 81.664C111.148 82.08 109.932 82.288 108.876 82.288ZM109.26 81.328C109.452 81.328 109.804 81.328 110.316 81.328C110.86 81.328 111.5 81.216 112.236 80.992C114.06 80.448 115.244 79.424 115.788 77.92C115.948 77.472 116.028 77.056 116.028 76.672C116.028 76.256 115.9 75.968 115.644 75.808C115.388 75.616 115.164 75.52 114.972 75.52C112.892 75.552 110.988 77.488 109.26 81.328ZM130.909 78.496C130.909 77.024 130.445 76.288 129.517 76.288C128.621 76.288 127.325 77.264 125.629 79.216C123.965 81.136 122.701 83.2 121.837 85.408L120.829 88.096C120.637 88.096 120.253 88.192 119.677 88.384C119.101 88.576 118.797 88.672 118.765 88.672C118.605 88.672 118.589 88.528 118.717 88.24C118.877 87.952 119.149 87.328 119.533 86.368C119.949 85.408 120.445 84.192 121.021 82.72C122.141 79.904 122.893 78.048 123.277 77.152C121.581 78.976 120.045 80.8 118.669 82.624C118.445 82.944 118.333 82.912 118.333 82.528C118.333 82.272 118.413 82.048 118.573 81.856C120.845 79.04 122.589 76.752 123.805 74.992C125.405 74.768 126.333 74.544 126.589 74.32C126.845 74.096 127.005 73.984 127.069 73.984C127.133 73.984 127.165 74.048 127.165 74.176C127.197 74.304 127.117 74.48 126.925 74.704C126.733 74.928 125.661 76.832 123.709 80.416C124.573 79.104 125.661 77.808 126.973 76.528C128.317 75.248 129.453 74.608 130.381 74.608C131.341 74.608 131.965 75.008 132.253 75.808C132.381 75.968 132.445 76.144 132.445 76.336C132.445 76.528 132.413 76.784 132.349 77.104C132.285 77.392 132.221 77.632 132.157 77.824C131.805 78.624 131.549 79.104 131.389 79.264C131.293 79.424 131.133 79.52 130.909 79.552C130.877 79.52 130.845 79.488 130.813 79.456C130.877 79.104 130.909 78.784 130.909 78.496ZM143.987 78.496C143.987 77.024 143.523 76.288 142.595 76.288C141.699 76.288 140.403 77.264 138.707 79.216C137.043 81.136 135.779 83.2 134.915 85.408L133.907 88.096C133.715 88.096 133.331 88.192 132.755 88.384C132.179 88.576 131.875 88.672 131.843 88.672C131.683 88.672 131.667 88.528 131.795 88.24C131.955 87.952 132.227 87.328 132.611 86.368C133.027 85.408 133.523 84.192 134.099 82.72C135.219 79.904 135.971 78.048 136.355 77.152C134.659 78.976 133.123 80.8 131.747 82.624C131.523 82.944 131.411 82.912 131.411 82.528C131.411 82.272 131.491 82.048 131.651 81.856C133.923 79.04 135.667 76.752 136.883 74.992C138.483 74.768 139.411 74.544 139.667 74.32C139.923 74.096 140.083 73.984 140.147 73.984C140.211 73.984 140.243 74.048 140.243 74.176C140.275 74.304 140.195 74.48 140.003 74.704C139.811 74.928 138.739 76.832 136.787 80.416C137.651 79.104 138.739 77.808 140.051 76.528C141.395 75.248 142.531 74.608 143.459 74.608C144.419 74.608 145.043 75.008 145.331 75.808C145.459 75.968 145.523 76.144 145.523 76.336C145.523 76.528 145.491 76.784 145.427 77.104C145.363 77.392 145.299 77.632 145.235 77.824C144.883 78.624 144.627 79.104 144.467 79.264C144.371 79.424 144.211 79.52 143.987 79.552C143.955 79.52 143.923 79.488 143.891 79.456C143.955 79.104 143.987 78.784 143.987 78.496ZM159.609 80.896C159.673 80.96 159.705 81.088 159.705 81.28C159.705 81.472 159.481 81.872 159.033 82.48C156.185 86.256 153.545 88.144 151.113 88.144C150.345 88.144 149.961 87.84 149.961 87.232C149.961 86.112 150.585 84.576 151.833 82.624C150.713 83.808 149.433 85.024 147.993 86.272C146.553 87.488 145.209 88.096 143.961 88.096C143.385 88.096 143.097 87.744 143.097 87.04C143.097 86.88 143.113 86.768 143.145 86.704C143.369 84.88 144.105 82.96 145.353 80.944C147.849 76.912 150.441 74.896 153.129 74.896H158.649C158.809 74.896 158.889 74.96 158.889 75.088C158.889 75.344 158.745 75.472 158.457 75.472C158.009 75.472 157.449 76 156.777 77.056C156.105 78.08 155.209 79.68 154.089 81.856C153.001 84 152.457 85.36 152.457 85.936C152.457 86.48 152.681 86.752 153.129 86.752C153.865 86.752 154.889 86.112 156.201 84.832C156.905 84.096 157.433 83.52 157.785 83.104C158.137 82.688 158.361 82.416 158.457 82.288C158.585 82.16 158.969 81.696 159.609 80.896ZM154.473 76.432C154.473 75.824 154.057 75.52 153.225 75.52C152.425 75.52 151.529 75.984 150.537 76.912C149.545 77.84 148.457 79.344 147.273 81.424C146.121 83.472 145.545 84.96 145.545 85.888C145.545 86.272 145.673 86.464 145.929 86.464C146.857 86.464 148.505 85.056 150.873 82.24C153.273 79.392 154.473 77.456 154.473 76.432ZM173.239 75.568C173.239 75.984 172.967 76.576 172.423 77.344C171.911 78.112 171.127 79.568 170.071 81.712C169.015 83.824 168.487 85.168 168.487 85.744C168.487 86.288 168.711 86.56 169.159 86.56C169.639 86.56 170.247 86.272 170.983 85.696C171.751 85.088 172.423 84.448 172.999 83.776C173.607 83.104 174.407 82.16 175.399 80.944C175.463 81.04 175.495 81.184 175.495 81.376C175.495 81.568 175.287 81.936 174.871 82.48C173.239 84.688 171.863 86.224 170.743 87.088C169.623 87.952 168.615 88.384 167.719 88.384C166.695 88.384 166.183 87.888 166.183 86.896C166.183 85.872 166.695 84.336 167.719 82.288C168.775 80.208 169.623 78.464 170.263 77.056C170.583 76.384 170.359 76.256 169.591 76.672C165.943 78.944 163.111 82.752 161.095 88.096C160.903 88.096 160.519 88.192 159.943 88.384C159.399 88.608 159.079 88.72 158.983 88.72C158.855 88.72 158.855 88.56 158.983 88.24C159.143 87.952 159.415 87.328 159.799 86.368C160.215 85.408 160.711 84.192 161.287 82.72C162.407 79.904 163.159 78.048 163.543 77.152C161.847 78.976 160.311 80.8 158.935 82.624C158.711 82.944 158.599 82.912 158.599 82.528C158.599 82.272 158.679 82.048 158.839 81.856C161.111 79.04 162.855 76.752 164.071 74.992C165.671 74.768 166.599 74.544 166.855 74.32C167.111 74.096 167.271 73.984 167.335 73.984C167.399 73.984 167.431 74.048 167.431 74.176C167.463 74.304 167.367 74.496 167.143 74.752C166.951 74.976 165.703 77.232 163.398 81.52C164.935 79.504 166.727 77.728 168.775 76.192C170.087 75.232 171.159 74.752 171.991 74.752C172.823 74.752 173.239 75.024 173.239 75.568ZM176.938 82.288C176.458 83.536 176.218 84.704 176.218 85.792C176.218 86.848 176.874 87.376 178.186 87.376C178.666 87.376 179.29 87.232 180.058 86.944C181.306 86.528 182.602 85.728 183.946 84.544C185.29 83.36 186.394 82.208 187.258 81.088C187.354 81.184 187.402 81.312 187.402 81.472C187.402 81.632 187.29 81.872 187.066 82.192C185.882 83.824 184.41 85.264 182.65 86.512C180.89 87.76 179.098 88.384 177.274 88.384C174.906 88.384 173.722 87.52 173.722 85.792C173.722 84.416 174.458 82.512 175.93 80.08C176.762 78.768 177.946 77.552 179.482 76.432C181.018 75.28 182.49 74.704 183.898 74.704C185.306 74.704 186.01 75.376 186.01 76.72C186.01 78.128 185.45 79.2 184.33 79.936C183.242 80.64 181.994 81.216 180.586 81.664C179.21 82.08 177.994 82.288 176.938 82.288ZM177.322 81.328C177.514 81.328 177.866 81.328 178.378 81.328C178.922 81.328 179.562 81.216 180.298 80.992C182.122 80.448 183.306 79.424 183.85 77.92C184.01 77.472 184.09 77.056 184.09 76.672C184.09 76.256 183.962 75.968 183.706 75.808C183.45 75.616 183.226 75.52 183.034 75.52C180.954 75.552 179.05 77.488 177.322 81.328ZM188.891 82.288C188.411 83.536 188.171 84.704 188.171 85.792C188.171 86.848 188.827 87.376 190.139 87.376C190.619 87.376 191.243 87.232 192.011 86.944C193.259 86.528 194.555 85.728 195.899 84.544C197.243 83.36 198.347 82.208 199.211 81.088C199.307 81.184 199.355 81.312 199.355 81.472C199.355 81.632 199.243 81.872 199.019 82.192C197.835 83.824 196.363 85.264 194.603 86.512C192.843 87.76 191.051 88.384 189.227 88.384C186.859 88.384 185.675 87.52 185.675 85.792C185.675 84.416 186.411 82.512 187.883 80.08C188.715 78.768 189.899 77.552 191.435 76.432C192.971 75.28 194.443 74.704 195.851 74.704C197.259 74.704 197.963 75.376 197.963 76.72C197.963 78.128 197.403 79.2 196.283 79.936C195.195 80.64 193.947 81.216 192.539 81.664C191.163 82.08 189.947 82.288 188.891 82.288ZM189.275 81.328C189.467 81.328 189.819 81.328 190.331 81.328C190.875 81.328 191.515 81.216 192.251 80.992C194.075 80.448 195.259 79.424 195.803 77.92C195.963 77.472 196.043 77.056 196.043 76.672C196.043 76.256 195.915 75.968 195.659 75.808C195.403 75.616 195.179 75.52 194.987 75.52C192.907 75.552 191.003 77.488 189.275 81.328Z" fill="black"/>
<defs>
<linearGradient id="paint0_linear" x1="42.5" y1="-4.5" x2="172.5" y2="98.5" gradientUnits="userSpaceOnUse">
<stop stop-color="#102334"/>
<stop offset="1" stop-color="#6F9FCB"/>
</linearGradient>
<linearGradient id="paint1_linear" x1="84" y1="49" x2="103.5" y2="26" gradientUnits="userSpaceOnUse">
<stop stop-color="#74690D"/>
<stop offset="0.244792" stop-color="#284409" stop-opacity="0.999418"/>
<stop offset="0.798328" stop-color="#2D4711" stop-opacity="0.996667"/>
<stop offset="1" stop-color="#606544" stop-opacity="0.99"/>
<stop offset="1" stop-color="#606544" stop-opacity="0.99"/>
</linearGradient>
<linearGradient id="paint2_linear" x1="65" y1="37" x2="73" y2="37" gradientUnits="userSpaceOnUse">
<stop stop-color="#4F4C30"/>
<stop offset="1" stop-color="#547B42"/>
</linearGradient>
<linearGradient id="paint3_linear" x1="48" y1="82" x2="65.5" y2="109.5" gradientUnits="userSpaceOnUse">
<stop stop-color="#547B42"/>
<stop offset="0.145833" stop-color="#E3CA89" stop-opacity="0.885417"/>
<stop offset="1" stop-color="#B29547"/>
</linearGradient>
<linearGradient id="paint4_linear" x1="156" y1="76.5" x2="154" y2="141" gradientUnits="userSpaceOnUse">
<stop stop-color="#587113"/>
<stop offset="0.0904877" stop-color="#E3CA89" stop-opacity="0.885417"/>
<stop offset="1" stop-color="#A58566"/>
</linearGradient>
<linearGradient id="paint5_linear" x1="93.866" y1="86.8341" x2="111.847" y2="146.18" gradientUnits="userSpaceOnUse">
<stop stop-color="#B9A570"/>
<stop offset="1" stop-color="#B29547"/>
</linearGradient>
<linearGradient id="paint6_linear" x1="58.0728" y1="77.2798" x2="67.4761" y2="108.314" gradientUnits="userSpaceOnUse">
<stop stop-color="#678A44"/>
<stop offset="0.109375" stop-color="#C4B691"/>
<stop offset="1" stop-color="#B9A570"/>
</linearGradient>
<clipPath id="clip0">
<rect x="46" width="125" height="125" rx="62.5" fill="white"/>
</clipPath>
<clipPath id="clip1">
<rect width="60" height="70" fill="white" transform="translate(57 -10.9287) rotate(-0.0680739)"/>
</clipPath>
</defs>
</svg>
