<svg width="320" height="135" viewBox="0 0 320 135" fill="none" xmlns="http://www.w3.org/2000/svg">
<g clip-path="url(#clip0)">
<g clip-path="url(#clip1)">
<rect x="98" y="5" width="125" height="125" rx="62.5" fill="url(#paint0_linear)"/>
<g clip-path="url(#clip2)">
<path d="M137.316 -5.79174C137.208 -5.79037 136.719 -5.62539 136.178 -5.40714C135.117 -4.97845 134.923 -4.92672 134.877 -5.05567C134.863 -5.09503 134.591 -5.15632 134.273 -5.19064C133.775 -5.24439 133.581 -5.22605 132.868 -5.05566C131.894 -4.82283 131.611 -4.62434 131.594 -4.16148C131.578 -3.73091 131.364 -3.49816 130.957 -3.47278C130.596 -3.45026 130.117 -3.67007 130.117 -3.85741C130.117 -3.91184 130.011 -4.019 129.881 -4.09518C129.672 -4.2168 129.601 -4.22019 129.303 -4.13734C129.117 -4.08544 128.865 -4.06271 128.743 -4.08668C128.527 -4.12903 128.519 -4.11885 128.452 -3.73403C128.404 -3.45904 128.416 -3.14557 128.489 -2.70811C128.548 -2.36155 128.574 -2.02737 128.55 -1.96548C128.45 -1.70634 127.482 -1.94181 127.547 -2.20947C127.662 -2.68411 126.966 -2.51478 126.611 -1.98222C126.496 -1.80937 126.386 -1.52973 126.366 -1.35825C126.333 -1.06509 126.349 -1.03303 126.639 -0.834881C126.917 -0.644594 126.952 -0.582162 127 -0.204494C127.06 0.260134 126.979 0.43349 126.703 0.433818C126.499 0.434059 126.272 0.082665 126.271 -0.232193C126.271 -0.360296 126.206 -0.516585 126.117 -0.596217C125.968 -0.728837 125.941 -0.72936 125.552 -0.607448C125.307 -0.531026 125.059 -0.386291 124.936 -0.24965C124.455 0.285844 123.578 -0.182693 123.576 -0.976449C123.575 -1.23039 123.535 -1.31624 123.349 -1.45227C123.144 -1.60192 123.094 -1.60876 122.834 -1.52307C122.604 -1.44728 122.531 -1.37658 122.478 -1.17272C122.425 -0.968823 122.439 -0.89848 122.544 -0.822874C122.843 -0.607178 122.465 0.576077 122.002 0.875023C121.628 1.11632 121.067 2.26806 121.212 2.49704C121.266 2.582 121.369 2.66875 121.443 2.69196C121.71 2.77543 121.515 3.30054 121.237 3.24685C121.077 3.21586 121.017 3.12053 120.883 2.67359C120.814 2.44362 120.737 2.34463 120.606 2.31209C120.413 2.2646 120.362 2.05589 120.507 1.91229C120.552 1.86679 120.578 1.74923 120.564 1.65037C120.53 1.41814 120.065 1.18386 119.856 1.29415C119.625 1.41622 119.3 1.2271 118.874 0.724012C118.531 0.319705 118.489 0.233773 118.536 0.0293238C118.565 -0.0989144 118.595 -0.426838 118.6 -0.699167C118.61 -1.18665 118.608 -1.19423 118.397 -1.21786C118.176 -1.24281 117.647 -0.973963 117.647 -0.8361C117.647 -0.793597 117.484 -0.462645 117.285 -0.100114C117.045 0.336322 116.931 0.630092 116.947 0.771529C116.962 0.91249 116.87 1.15121 116.675 1.47408C116.395 1.94004 116.22 2.07886 115.841 2.13683C115.754 2.15024 115.641 2.26987 115.577 2.41328C115.482 2.62861 115.437 2.65838 115.269 2.61836C115.161 2.59261 114.943 2.48766 114.785 2.38566C114.391 2.13101 114.054 2.14651 113.65 2.43699C113.379 2.63136 113.277 2.66329 113.06 2.62337C112.863 2.58695 112.744 2.6134 112.577 2.73106C112.277 2.94277 111.759 2.94645 111.646 2.73693C111.535 2.53182 111.366 2.54345 111.311 2.76114C111.261 2.96151 110.928 3.14362 110.727 3.08081C110.653 3.05776 110.501 3.11192 110.388 3.20023C110.221 3.33073 110.184 3.42152 110.184 3.70275C110.184 4.01057 110.233 4.10278 110.647 4.59724C110.904 4.90376 111.11 5.22457 111.11 5.31797C111.11 5.41048 111.195 5.56115 111.298 5.65339C112.039 6.31881 111.982 6.22358 111.934 6.73097C111.911 6.98548 111.87 7.25312 111.841 7.32619C111.813 7.39926 111.507 7.59962 111.161 7.76976C110.624 8.03401 110.502 8.06828 110.324 8.00166C110.16 7.94033 110.039 7.9554 109.761 8.07374C109.566 8.15651 109.359 8.22418 109.299 8.22426C109.239 8.22433 109.189 8.27581 109.189 8.33865C109.189 8.40149 109.217 8.45288 109.251 8.45284C109.286 8.45279 109.452 8.75534 109.618 9.12606C109.965 9.90174 110.288 10.2036 110.769 10.203C111.221 10.2025 111.347 10.3101 111.347 10.6903C111.348 10.8917 111.294 11.0913 111.208 11.2023C111.131 11.3023 110.928 11.6298 110.754 11.9313L110.44 12.4791L110.522 13.0361C110.587 13.4642 110.667 13.6736 110.865 13.945C111.154 14.3421 111.196 14.3743 112.182 14.9146C112.991 15.3577 113.342 15.4069 113.905 15.153C114.275 14.9867 114.549 14.9496 114.468 15.0785C114.44 15.1236 114.492 15.2389 114.584 15.3355C114.74 15.4988 114.744 15.5313 114.642 15.7734C114.582 15.9165 114.334 16.2463 114.09 16.5073L113.645 16.9815L113.742 17.3218L113.841 17.6645L114.438 17.6637C114.86 17.6632 115.059 17.6301 115.123 17.5534C115.173 17.4938 115.36 17.423 115.537 17.3934C116.15 17.2915 117.129 16.6982 117.129 16.4299C117.129 16.253 117.628 15.2551 117.755 15.177C117.806 15.1462 117.952 15.1007 118.082 15.0743C118.324 15.0251 118.47 14.8289 118.546 14.4548C118.604 14.166 119.044 13.7559 119.608 13.4656L120.104 13.2103L121.213 13.4971C122.564 13.8444 122.715 13.8982 123.014 14.1519C123.782 14.8042 124.691 15.3545 125.441 15.6202C125.873 15.7732 126.289 15.8977 126.368 15.8976C126.546 15.8974 127.178 16.5951 127.367 17.0009C127.468 17.2161 127.526 17.5894 127.566 18.2766C127.598 18.8114 127.653 19.2678 127.69 19.2905C127.727 19.3132 127.758 19.4116 127.758 19.507C127.758 19.6054 127.894 19.8176 128.069 19.9994C128.639 20.5909 128.95 21.4629 128.863 22.2218C128.832 22.4969 128.864 22.6512 129.02 22.9548C129.2 23.3039 129.247 23.3426 129.533 23.3803C129.963 23.4368 130.099 23.5591 130.041 23.8439C130.004 24.0312 130.039 24.1177 130.242 24.3245C130.378 24.463 130.525 24.5765 130.567 24.5764C130.928 24.576 132.077 25.8936 132.078 26.3076C132.078 26.4917 132.043 26.5506 131.914 26.5696C131.512 26.6294 131.541 27.0539 131.958 27.2004C132.138 27.2636 132.19 27.2483 132.312 27.0881C132.491 26.8525 132.855 26.8662 133.33 27.1274C133.51 27.2268 133.778 27.3674 133.924 27.4409C134.255 27.6066 134.775 28.1276 134.777 28.2944C134.778 28.3627 134.892 28.6409 135.031 28.913C135.258 29.3592 135.31 29.4093 135.544 29.4314C135.96 29.4707 136.885 30.1333 137.08 30.5317C137.17 30.7142 137.242 30.9158 137.242 30.9814C137.242 31.047 137.355 31.186 137.492 31.2906C137.948 31.6367 138.665 32.356 138.943 32.748C139.201 33.1122 139.258 33.1498 139.944 33.3824C140.578 33.5973 140.714 33.676 140.996 33.9906C141.175 34.1893 141.331 34.4206 141.344 34.5043C141.36 34.6154 141.434 34.6627 141.62 34.6802C141.761 34.6933 141.92 34.6669 141.974 34.6226C142.028 34.5784 142.208 34.4967 142.373 34.4388C142.647 34.3434 142.731 34.3505 143.29 34.5116C143.934 34.6969 144.294 34.7345 144.361 34.6269C144.442 34.4966 144.857 34.6369 145.078 34.8689C145.34 35.1432 145.862 35.9608 146.204 36.6314C146.332 36.8827 146.481 37.1739 146.534 37.2785C146.612 37.429 146.701 37.4735 146.961 37.4923C147.141 37.5053 147.363 37.4778 147.454 37.4298C147.595 37.355 147.68 37.3822 148.051 37.6314C148.608 38.0056 148.642 38.1002 148.323 38.3619C147.84 38.7591 147.799 38.8009 147.8 38.9148C147.8 39.0709 148.017 39.0569 148.348 38.8808C148.543 38.7772 148.714 38.7473 148.928 38.7754C149.149 38.8045 149.26 38.7809 149.334 38.6916C149.391 38.6243 149.502 38.57 149.585 38.5699C149.667 38.5698 149.806 38.5319 149.892 38.4862C150.127 38.3618 150.456 38.7086 150.815 39.4563C151.148 40.1499 151.158 40.2053 151.004 40.5178C150.772 40.9889 150.819 41.1918 151.217 41.4221C151.401 41.5284 151.6 41.6141 151.66 41.6144C151.72 41.6147 152.068 41.8885 152.435 42.2228C152.802 42.5572 153.167 42.8314 153.244 42.8313C153.322 42.8312 153.485 42.711 153.603 42.5642C153.979 42.096 154.436 42.2646 154.838 43.0198C155.057 43.4322 155.103 43.6159 155.173 44.3144C155.222 44.7942 155.537 45.4844 155.972 46.0654C156.25 46.4377 156.433 47.0001 156.433 47.4836C156.434 47.9192 156.674 48.9494 156.856 49.297C156.929 49.4348 157.055 49.5638 157.136 49.5847C157.33 49.6347 157.337 50.1468 157.149 50.5202C157.018 50.7809 157.007 50.7864 156.61 50.7613C156.26 50.7391 156.152 50.7692 155.819 50.9812C155.49 51.191 155.283 51.4039 155.283 51.5365C155.283 51.5553 155.35 51.587 155.43 51.6077C155.51 51.6284 155.63 51.7272 155.695 51.8264C155.798 51.9833 155.801 52.063 155.712 52.4382C155.563 53.0707 155.238 53.6198 154.956 53.7174C154.654 53.8219 154.593 53.8182 154.593 53.6988C154.593 53.6446 154.459 53.5663 154.294 53.523C154.008 53.4477 153.942 53.468 152.846 54.0103L151.702 54.5782L151.396 54.4524C151.228 54.3829 150.909 54.3272 150.686 54.3271C150.339 54.3269 150.224 54.3672 149.892 54.6089C149.205 55.1092 147.896 55.3479 146.753 55.1839C146.143 55.0964 146.12 55.0995 145.793 55.2898C145.259 55.6003 144.942 55.5596 144 55.0611C143.356 54.7204 143.199 54.6063 143.198 54.4717C143.198 54.3795 143.148 54.2337 143.087 54.148C142.983 54.0013 142.945 53.9974 142.397 54.0751C141.929 54.1413 141.774 54.1963 141.605 54.3641C141.441 54.5277 141.414 54.5941 141.488 54.6665C141.539 54.7173 141.582 54.7861 141.582 54.8187C141.582 54.8975 141.006 55.186 140.848 55.1862C140.78 55.1863 140.561 55.0194 140.36 54.8154L139.993 54.4445L139.525 54.7212C139.266 54.8734 138.986 55.0837 138.904 55.1885C138.704 55.4459 138.549 55.9353 138.574 56.2292C138.586 56.3858 138.55 56.4944 138.47 56.5387C138.363 56.5984 138.36 56.6581 138.442 57.0101C138.523 57.3554 138.602 57.4716 139.001 57.8283L139.466 58.2443L140.142 58.1912C140.785 58.1406 140.833 58.1462 141.107 58.3328C141.266 58.4407 141.55 58.5624 141.74 58.6035C142.01 58.6615 142.164 58.7625 142.434 59.0573C142.757 59.4096 143.722 59.9818 143.994 59.9814C144.049 59.9814 144.239 60.1318 144.416 60.3166C144.596 60.5063 144.951 60.7547 145.232 60.8869C145.691 61.1032 145.774 61.1188 146.298 61.0761C146.811 61.0343 146.897 61.0475 147.21 61.2226C147.687 61.4889 148.113 61.9163 148.398 62.4138C148.621 62.8045 148.688 62.856 149.397 63.2053C150.091 63.547 150.181 63.5748 150.439 63.5063C150.775 63.4172 151.444 63.5544 151.563 63.7383C151.661 63.8878 151.978 63.8926 152.035 63.7449C152.059 63.6833 152.02 63.4834 151.95 63.3022C151.83 62.9917 151.831 62.9508 151.964 62.5952C152.077 62.2933 152.186 62.1657 152.507 61.9518C152.908 61.6847 152.908 61.6839 152.889 61.3039C152.873 60.993 152.843 60.9181 152.717 60.8947C152.385 60.8326 151.839 59.7117 151.818 59.0485C151.805 58.6354 151.824 58.5694 152.002 58.4223C152.217 58.2444 152.442 57.6054 152.441 57.172C152.441 56.8983 152.738 56.4111 153.486 55.4568C153.744 55.1267 153.951 54.7581 154.062 54.4278C154.157 54.1448 154.249 53.9648 154.266 54.0276C154.283 54.0905 154.334 54.2164 154.379 54.3084C154.427 54.4045 154.444 54.6899 154.421 54.9773C154.384 55.4462 154.396 55.4903 154.598 55.7031C154.716 55.828 154.858 55.9335 154.915 55.936C156.308 55.9975 156.566 55.9876 156.698 55.8696C156.888 55.7006 157.038 55.3479 157.094 54.9384C157.16 54.4611 157.93 53.5315 158.32 53.4587C158.477 53.4293 158.709 53.2862 158.897 53.1057C159.204 52.8099 159.212 52.7911 159.211 52.2888C159.21 52.006 159.16 51.5952 159.101 51.3772C158.946 50.8014 159.119 50.4827 159.812 50.0671C160.517 49.6446 160.955 49.5188 161.359 49.6249C161.531 49.6703 161.672 49.7341 161.672 49.7674C161.672 49.8006 161.722 49.8292 161.785 49.8291C162.074 49.8288 162.245 48.9538 162.014 48.6529C161.874 48.4701 161.858 47.3195 161.988 46.8057C162.071 46.477 162.066 46.448 161.891 46.3155C161.79 46.2382 161.585 46.1206 161.436 46.0518C161.288 45.983 160.902 45.7249 160.577 45.4791C160.075 45.0995 159.938 45.0324 159.667 45.0327C159.491 45.0329 159.279 44.9979 159.197 44.9547C159.036 44.8696 158.739 44.3536 158.739 44.1578C158.739 44.0913 158.879 43.7856 159.049 43.479C159.301 43.0228 159.353 42.8554 159.341 42.555C159.328 42.2317 159.356 42.1635 159.562 41.9906C159.801 41.7898 160.045 41.3907 160.045 41.2021C160.044 41.1441 160.183 40.9008 160.352 40.6614C160.521 40.4219 160.659 40.2014 160.659 40.1706C160.659 40.0745 161.223 39.5335 161.388 39.4723C161.473 39.4403 161.774 39.4459 162.054 39.4858L162.564 39.559L162.379 39.7544C162.278 39.8627 162.207 39.9855 162.221 40.026C162.234 40.0664 162.522 40.2562 162.859 40.4489C163.402 40.7595 163.519 40.7999 163.894 40.7881C164.479 40.7697 165.429 40.9049 165.631 41.036C165.895 41.2063 166.309 42.1621 166.266 42.4992C166.246 42.6526 166.27 42.8727 166.319 42.9895C166.444 43.2842 167.101 43.8041 167.353 43.8072C167.464 43.8085 167.641 43.8588 167.747 43.9186C167.853 43.9783 168.018 44.0286 168.113 44.03C168.274 44.0323 168.286 43.9993 168.286 43.5728C168.285 43.0514 168.405 42.7103 168.698 42.3963C168.966 42.1098 168.953 41.8813 168.637 41.2038C168.362 40.6162 168.045 40.2684 167.049 39.4656C166.672 39.1615 166.527 38.988 166.459 38.7617C166.351 38.4034 166.233 38.3081 165.628 38.089C165.375 37.9976 164.838 37.7706 164.434 37.5858C163.819 37.3045 163.594 37.1463 163.044 36.6186C162.339 35.9408 162.132 35.8256 160.576 35.2313C159.153 34.6873 158.826 34.5409 157.688 33.9422C157.094 33.6302 156.533 33.3557 156.438 33.3319C156.343 33.3081 156.159 33.169 156.029 33.0229C155.834 32.8036 155.797 32.7048 155.816 32.4471C155.838 32.1505 155.86 32.1227 156.29 31.9062C156.538 31.781 156.858 31.5611 157.001 31.415C157.301 31.1089 157.332 30.8493 157.13 30.3674C156.958 29.9581 156.671 29.8646 155.873 29.9571C154.843 30.0766 152.346 30.1418 152.159 30.0543C152.064 30.0102 151.877 29.9333 151.742 29.8835C151.607 29.8337 151.479 29.748 151.458 29.6934C151.437 29.6387 151.236 29.534 151.01 29.4606C150.27 29.2195 149.867 28.8924 149.866 28.5312C149.866 28.3914 149.686 28.2643 149.365 28.1771C149.28 28.154 148.686 27.6298 148.045 27.0123C146.782 25.7944 146.424 25.2965 146.088 24.2914C145.99 23.9982 145.845 23.5977 145.767 23.4015C145.689 23.2053 145.625 22.923 145.625 22.7756C145.624 22.5165 145.208 21.3264 144.659 20.0178C144.512 19.6692 144.41 19.3376 144.432 19.2801C144.479 19.1588 144.031 18.6985 143.854 18.6857C143.641 18.6704 143.586 18.6541 143.29 18.5245C142.962 18.3806 142.452 17.9836 141.636 17.2339C140.848 16.5102 140.497 16.2767 140.107 16.2193C139.804 16.1747 139.694 16.0935 139.098 15.4754C138.73 15.0939 138.358 14.6628 138.271 14.517C137.879 13.8606 137.462 11.4765 137.615 10.7663C137.702 10.362 137.75 10.3247 137.894 10.5517C137.947 10.6354 138.06 10.7038 138.144 10.7037C138.264 10.7036 138.299 10.6489 138.307 10.456C138.315 10.2694 138.325 10.2521 138.351 10.3845C138.402 10.6486 138.542 10.5515 138.781 10.0888C139.034 9.59762 139.036 9.2286 138.787 9.19377C138.557 9.16155 138.154 8.72223 137.568 7.86455L137.059 7.12008L137.367 6.51508C137.641 5.97309 137.728 5.8721 138.184 5.56907C138.626 5.27506 138.718 5.24006 138.876 5.31116C139.013 5.37266 139.039 5.41855 138.978 5.49196C138.933 5.54579 138.85 5.57262 138.795 5.55168C138.61 5.48161 137.752 6.45578 137.752 6.736C137.752 6.90506 137.882 6.81168 138.007 6.55241C138.077 6.40569 138.192 6.28558 138.262 6.28549C138.331 6.28541 138.754 6.09028 139.204 5.85113C140.874 4.96393 141.313 4.75838 141.542 4.75811C141.774 4.75784 141.776 4.75477 141.729 4.41987C141.692 4.15616 141.712 4.04578 141.825 3.90796L141.969 3.73164L142.491 3.86908C142.778 3.94447 143.083 4.05281 143.167 4.11108C143.305 4.20631 143.307 4.2217 143.192 4.26578C143.027 4.32852 143.023 4.52783 143.187 4.52764C143.255 4.52756 143.446 4.4522 143.61 4.3605C143.843 4.23089 143.909 4.14682 143.908 3.98642C143.908 3.87293 143.958 3.76179 144.019 3.73872C144.187 3.67452 144.722 4.09766 144.944 4.4708C145.188 4.88222 145.188 4.90613 144.949 4.90641C144.829 4.90656 144.756 4.94981 144.757 5.0209C144.757 5.21513 145.512 5.17351 145.733 4.96737C145.915 4.79801 145.965 4.63409 145.846 4.58875C145.809 4.57483 145.673 4.39395 145.545 4.18919C145.349 3.87633 145.234 3.78623 144.822 3.61399C144.452 3.45914 144.313 3.3569 144.256 3.20046C144.201 3.04589 144.21 2.9766 144.287 2.92905C144.344 2.89402 144.408 2.69057 144.429 2.4766C144.463 2.12203 144.451 2.08856 144.305 2.08874C144.218 2.08884 144.125 2.12323 144.099 2.16516C144.026 2.28196 143.853 2.25574 143.8 2.12028C143.736 1.95642 143.948 1.61714 144.228 1.43659C144.578 1.21061 144.746 0.642037 144.463 0.638861C144.388 0.638033 144.176 0.56852 143.988 0.484696C143.755 0.380315 143.621 0.357704 143.567 0.411403C143.442 0.535951 143.387 0.505349 143.302 0.26651C143.229 0.0584178 143.248 0.0196823 143.583 -0.290847C143.781 -0.474172 144.124 -0.725229 144.345 -0.848775C144.72 -1.05743 144.903 -1.3051 144.903 -1.60166C144.902 -1.73943 143.969 -1.94964 143.151 -1.99473C142.38 -2.03719 140.701 -2.33801 140.359 -2.49606C140.253 -2.54503 140.08 -2.59613 139.974 -2.60749C138.575 -2.75761 138.362 -2.8539 138.045 -3.47882C137.806 -3.95227 137.468 -4.37794 137.335 -4.37778C137.22 -4.37765 137.079 -4.55451 136.988 -4.81299C136.896 -5.07181 136.903 -5.08638 137.237 -5.25605C137.421 -5.34928 137.489 -5.73253 137.333 -5.79176C137.329 -5.79315 137.323 -5.79183 137.316 -5.79174L137.316 -5.79174ZM138.622 16.2734C138.637 16.2727 138.649 16.2755 138.658 16.2853C138.684 16.3109 138.686 16.419 138.659 16.5257C138.606 16.7348 138.423 16.7885 138.356 16.6141C138.316 16.5136 138.518 16.2785 138.622 16.2734Z" fill="url(#paint1_linear)" stroke="black" stroke-width="0.340716"/>
<path d="M135.966 63.1065C135.756 62.8145 135.835 62.6175 136.162 62.6172C136.444 62.6168 136.737 62.9765 136.614 63.1714C136.466 63.407 136.161 63.3765 135.966 63.1065Z" stroke="black" stroke-width="0.340716"/>
<path d="M137.684 55.9885C137.614 55.8079 137.767 55.6942 138.002 55.7524C138.139 55.7863 138.197 55.8454 138.18 55.9335C138.146 56.1118 137.749 56.1559 137.684 55.9885V55.9885Z" stroke="black" stroke-width="0.340716"/>
<path d="M136.423 55.6512C136.423 55.4613 136.574 55.3676 136.661 55.5035C136.773 55.6785 136.739 55.7985 136.577 55.7986C136.476 55.7988 136.423 55.7481 136.423 55.6512V55.6512Z" stroke="black" stroke-width="0.340716"/>
<path d="M150.976 53.0084C150.922 52.9078 150.9 52.789 150.927 52.7445C150.955 52.6999 150.907 52.62 150.821 52.5667C150.637 52.4536 150.617 52.2591 150.775 52.1289C150.979 51.9612 151.162 52.0652 151.174 52.3549C151.181 52.5008 151.224 52.7166 151.271 52.8344C151.389 53.1291 151.379 53.191 151.216 53.1912C151.139 53.1913 151.031 53.109 150.976 53.0084V53.0084Z" stroke="black" stroke-width="0.340716"/>
<path d="M150.319 52.023C150.129 51.8859 150.218 51.6695 150.463 51.6692C150.692 51.6689 150.747 51.7398 150.689 51.9602C150.639 52.1504 150.523 52.1701 150.319 52.023V52.023Z" stroke="black" stroke-width="0.340716"/>
<path d="M141.961 51.0342C141.961 50.9729 142.03 50.8857 142.116 50.8405C142.237 50.7763 142.28 50.7831 142.315 50.872C142.339 50.9346 142.336 51.0216 142.309 51.0655C142.234 51.186 141.961 51.1615 141.961 51.0342L141.961 51.0342Z" stroke="black" stroke-width="0.340716"/>
<path d="M152.164 50.5251C152.098 50.4207 152.259 50.2197 152.408 50.2196C152.564 50.2194 152.505 50.5538 152.343 50.5845C152.273 50.5978 152.192 50.571 152.164 50.5251V50.5251Z" stroke="black" stroke-width="0.340716"/>
<path d="M147.183 39.1561C147.183 39.091 147.28 39.0313 147.417 39.0112C147.6 38.9844 147.646 39.0033 147.628 39.0975C147.598 39.2557 147.184 39.3103 147.183 39.1561V39.1561Z" stroke="black" stroke-width="0.340716"/>
<path d="M145.504 38.1768C145.38 38.0544 145.387 37.9223 145.525 37.785C145.748 37.5637 146.305 37.9296 146.142 38.1906C146.076 38.2976 145.616 38.2876 145.504 38.1768Z" stroke="black" stroke-width="0.340716"/>
<path d="M140.91 36.9854C140.846 36.8835 140.938 36.6926 141.076 36.64C141.24 36.5774 141.267 36.6216 141.208 36.855C141.159 37.0505 140.995 37.1219 140.91 36.9854V36.9854Z" stroke="black" stroke-width="0.340716"/>
<path d="M120.179 49.8469C120.042 49.7716 119.941 49.7665 119.781 49.8263C119.502 49.9309 119.393 49.8395 119.158 49.3058C118.936 48.8002 118.769 48.7638 118.639 49.1933C118.484 49.7083 118.207 49.5242 117.976 48.7524C117.91 48.5324 118.051 48.356 118.292 48.3558C118.522 48.3555 118.521 48.315 118.282 48.0062C118.049 47.7049 118.046 47.6569 118.243 47.4798C118.432 47.3106 118.441 47.093 118.265 46.9955C118.098 46.9033 118.116 46.5475 118.324 45.8103C118.44 45.3978 118.464 45.1562 118.425 44.786C118.386 44.4149 118.398 44.2858 118.48 44.2348C118.637 44.1362 118.701 44.1512 118.701 44.2863C118.701 44.3526 118.745 44.3926 118.797 44.3751C118.912 44.3371 119.013 43.8178 118.954 43.5692C118.914 43.4036 118.886 43.3955 118.525 43.4451L118.139 43.4981L118.188 43.1275C118.216 42.9237 118.307 42.5765 118.391 42.356C118.63 41.7313 118.601 40.9614 118.31 40.2406C117.885 39.1836 117.727 38.933 117.467 38.8955C117.288 38.8697 117.223 38.8952 117.188 39.0052C117.163 39.084 117.102 39.1353 117.052 39.1193C116.931 39.08 116.891 38.7618 116.994 38.6592C117.096 38.5582 117.104 38.2073 117.006 38.1081C116.963 38.064 116.982 37.7981 117.055 37.4262C117.228 36.5502 117.34 36.4459 117.633 36.8907C117.831 37.1919 118.104 37.3107 118.594 37.3101C118.979 37.3097 119.182 37.222 119.416 36.9552C119.515 36.8424 119.698 36.7528 119.886 36.7247C120.18 36.6808 120.54 36.4455 120.54 36.2974C120.539 36.135 121.281 35.3856 121.626 35.1991C121.894 35.0542 122.001 34.9503 122.001 34.8336C122.001 34.6323 122.138 34.4875 122.33 34.4873C122.41 34.4872 122.846 34.6742 123.299 34.9029C124.096 35.3051 124.13 35.3327 124.333 35.7413C124.594 36.2649 124.593 36.3046 124.332 36.5169C124.167 36.6511 124.15 36.6893 124.254 36.6913C124.476 36.6956 125.084 38.0404 125.085 38.5285C125.085 38.7221 125.148 38.8871 125.278 39.0403C125.384 39.1647 125.471 39.3236 125.471 39.3934C125.471 39.6594 125.216 40.2813 125.075 40.3558C124.822 40.4901 124.472 41.04 124.472 41.3023C124.473 41.447 124.566 41.682 124.703 41.8809C124.973 42.2748 124.997 42.6087 124.822 43.5233C124.758 43.8517 124.707 44.4246 124.708 44.7963C124.708 45.2774 124.64 45.7712 124.471 46.5105C124.341 47.0816 124.225 47.7156 124.213 47.9194C124.189 48.3332 124.103 48.4221 123.723 48.4243C123.533 48.4254 123.378 48.3498 123.135 48.139C122.86 47.9006 122.696 47.8301 122.16 47.7209C121.806 47.6486 121.49 47.5897 121.458 47.5899C121.374 47.5905 121.388 48.1328 121.483 48.5708C121.583 49.03 121.49 49.2532 121.022 49.6722C120.692 49.9683 120.481 50.0119 120.179 49.8469V49.8469Z" fill="url(#paint2_linear)" stroke="black" stroke-width="0.340716"/>
<path d="M117.444 48.3973C117.272 48.1374 117.285 48.0846 117.554 47.974C117.863 47.8468 117.971 47.951 117.903 48.3122C117.841 48.6408 117.631 48.6797 117.444 48.3973V48.3973Z" stroke="black" stroke-width="0.340716"/>
<path d="M117.338 36.2C117.396 35.9726 117.718 35.4447 117.848 35.3649C117.965 35.2932 118.071 35.4675 118.072 35.7344C118.074 35.9007 118.042 35.9433 117.932 35.9249C117.748 35.8943 117.536 36.0707 117.536 36.2535C117.536 36.334 117.482 36.3965 117.413 36.3965C117.318 36.3967 117.301 36.3504 117.338 36.2V36.2Z" stroke="black" stroke-width="0.340716"/>
<path d="M127.613 27.4047C127.613 27.255 127.805 27.1359 127.927 27.2102C127.965 27.2337 127.997 27.3194 127.997 27.4006C127.997 27.5074 127.944 27.5483 127.805 27.5485C127.668 27.5486 127.613 27.5076 127.613 27.4047Z" stroke="black" stroke-width="0.340716"/>
<path d="M130.624 27.3646C130.468 27.1999 130.463 27.1735 130.574 27.0633C130.731 26.9081 130.896 26.9719 130.957 27.2113C131.047 27.5673 130.887 27.6411 130.624 27.3646V27.3646Z" stroke="black" stroke-width="0.340716"/>
<path d="M126.534 25.7791C126.536 25.6185 126.664 25.4712 126.754 25.5263C126.905 25.6179 126.855 25.8738 126.687 25.874C126.602 25.8741 126.533 25.8314 126.534 25.7791Z" stroke="black" stroke-width="0.340716"/>
<path d="M128.141 24.764C127.947 24.5728 127.938 24.5716 127.604 24.6874C126.996 24.8975 126.686 24.8016 126.685 24.4035C126.685 24.2214 127.133 24.049 127.383 24.135C127.737 24.2565 128.018 24.1854 128.134 23.9449C128.306 23.5871 128.49 23.7056 128.518 24.1931C128.544 24.6323 128.492 24.9582 128.396 24.9583C128.364 24.9583 128.249 24.8709 128.141 24.764V24.764Z" fill="#284409" stroke="black" stroke-width="0.340716"/>
<path d="M125.19 22.8594C125.135 22.7199 125.291 22.3593 125.425 22.3162C125.562 22.2717 125.62 22.5591 125.518 22.7818C125.415 23.0059 125.261 23.0424 125.19 22.8594V22.8594Z" stroke="black" stroke-width="0.340716"/>
</g>
<path d="M106.218 85.4186L103.825 86.4204L101.997 85.8676L98.1435 87.0699L95.3144 89.8287L93.2762 89.7202L87.4061 91.9137L81.5024 94.5669L78.4315 96.984L76.7079 99.5116L73.0114 101.461L70.2351 104.965L72.4287 107.412L73.4564 110.005L76.1019 114.286L77.3619 114.907L77.1833 116.828L72.5905 119.015L71.3698 121.148L69.3632 122.171L70.1519 125.459L66.2998 128.493L65.5148 131.151L62.8297 133.244L59.2943 135.041L54.1928 140.114L55.6935 145.295L55.7894 145.611L55.9535 146.495L73.1335 152.872L88.6984 158.598L104.39 164.285L105.922 166.034L108.681 166.581L110.634 166.75L111.542 169.517L115.629 167.83L120.386 164.245L128.711 152.352L139.004 140.106L136.459 137.869L132.804 136.763L131.303 138.083L129.202 136.057L128.446 134.246L125.197 131.738L126.097 129.46L124.85 126.83L124.565 124.289L123.643 122.39L123.129 118.639L122.262 116.689L119.793 113.218L115.618 105.943L112.769 104.87L112.389 103.845L108.52 102.147L107.111 98.9782L108.579 95.8364L108.226 91.9326L106.212 87.9098L106.218 85.4186V85.4186Z" fill="url(#paint3_linear)" stroke="black" stroke-width="0.330897" stroke-linejoin="round"/>
<path d="M188.987 88.83L184.835 88.7051L180.838 88.6368L175.917 90.197L175.379 92.6421L176.642 94.2995L176.697 97.2215L179.102 100.365L184.741 115.668L190.322 131.576L205.554 126.96L220.248 122.508L235.259 117.96L234.293 117.284L228.448 114.768L227.3 112.004L227.766 111.033L222.624 107.301L220.473 105.221L218.202 103.317L212.804 97.4838L208.81 93.8879L205.487 89.8814L205.711 89.3641L210.809 94.6653L213.241 96.0722L215.025 97.053L215.586 96.053L215.75 93.5139L215.259 90.0669L215.608 88.0248L214.797 87.0604L210.177 81.5107L208.793 83.1056L205.803 83.735L202.456 83.6427L202.159 85.2885L200.303 83.4997L197.439 83.7452L194.324 85.104L193.273 86.7708L190.972 88.9894L188.987 88.83V88.83Z" fill="url(#paint4_linear)" stroke="black" stroke-width="0.330897" stroke-linejoin="round"/>
<path d="M175.917 90.197L174.504 89.0694L170.645 89.6854L169.18 89.2996L167.786 89.7217L165.798 88.1805L160.494 88.8195L158.165 90.1475L156.287 92.9639L155.885 95.4023L157.979 98.4329L156.905 100.937L155.508 102.604L150.761 101.657L144.926 101.454L141.31 101.616L138.198 98.3065L132.641 97.8812L129.317 98.0932L127.912 98.9338L123.081 98.7378L124.003 102.123L122.613 103.927L121.959 105.647L119.966 108.084L120.988 109.745L121.259 111.668L119.793 113.218L122.262 116.689L123.129 118.639L123.643 122.39L124.565 124.289L124.85 126.83L126.097 129.46L125.197 131.738L128.446 134.246L129.202 136.057L131.303 138.083L132.804 136.763L136.459 137.869L139.004 140.106L145.596 140.183L148.501 141.896L150.64 139.484L153.679 135.936L171.549 139.684L189.514 143.403L188.926 141.576L193.296 140.252L190.322 131.576L184.741 115.668L179.102 100.365L176.697 97.2215L176.642 94.2995L175.379 92.6421L175.917 90.197Z" fill="url(#paint5_linear)" stroke="black" stroke-width="0.330897" stroke-linejoin="round"/>
<path d="M123.081 98.7378L121.445 98.4729L119.798 96.6899L117.879 97.2023L116.39 95.0258L118.03 92.1086L117.217 88.1712L115.583 87.4562L114.896 85.417L115.966 82.6725L115.422 81.9038L112.912 84.4621L112.263 82.2041L109.534 82.4429L106.218 85.4186L106.212 87.9098L108.226 91.9326L108.579 95.8364L107.111 98.9782L108.52 102.147L112.389 103.845L112.769 104.87L115.618 105.943L119.793 113.218L121.259 111.668L120.988 109.745L119.966 108.084L121.959 105.647L122.613 103.927L124.003 102.123L123.081 98.7378V98.7378Z" fill="url(#paint6_linear)" stroke="black" stroke-width="0.330897" stroke-linejoin="round"/>
</g>
<path d="M117.765 49.595C117.708 49.6517 117.623 49.68 117.51 49.68C117.397 49.68 117.34 49.3683 117.34 48.745C117.34 48.1217 117.623 47.6683 118.19 47.385L118.785 47.215C120.995 47.1017 123.092 46.11 125.075 44.24C127.058 42.37 128.475 40.415 129.325 38.375L137.145 18.825C138.902 14.3483 140.913 10.6933 143.18 7.86C145.9 4.34667 149.668 2.59 154.485 2.59C157.035 2.59 159.132 3.04333 160.775 3.95C162.418 4.8 163.24 5.93333 163.24 7.35C163.24 7.69 163.183 8.115 163.07 8.625C162.957 9.07833 162.447 9.95667 161.54 11.26C160.633 12.5633 160.038 13.5833 159.755 14.32C159.528 15.0567 159.217 15.34 158.82 15.17C158.48 15 158.423 14.745 158.65 14.405C159.67 12.9317 160.18 11.3733 160.18 9.73C160.18 8.08666 159.812 6.64166 159.075 5.395C158.395 4.14833 157.233 3.525 155.59 3.525C151.963 3.525 149.13 5.42333 147.09 9.22L131.365 38.205C128.928 42.625 126.577 45.2883 124.31 46.195C131.903 46.195 137.825 46.195 142.075 46.195C146.382 46.195 148.818 46.195 149.385 46.195C149.952 46.1383 150.603 46.0817 151.34 46.025C152.133 45.9683 152.785 45.9117 153.295 45.855C153.805 45.7983 154.315 45.7133 154.825 45.6C156.582 45.2033 157.46 44.07 157.46 42.2C157.46 40.7833 156.695 39.7067 155.165 38.97C154.768 38.8 154.712 38.6017 154.995 38.375C155.562 37.9783 156.582 38.6867 158.055 40.5C159.528 42.2567 160.378 43.475 160.605 44.155C160.888 44.835 161.03 45.515 161.03 46.195C161.03 46.875 160.605 47.5833 159.755 48.32C158.905 49 156.95 49.34 153.89 49.34C150.83 49.34 145.447 49.0567 137.74 48.49C128.957 47.9233 124.112 47.64 123.205 47.64C120.995 47.64 119.182 48.2917 117.765 49.595ZM193.064 36.42C193.178 36.5333 193.234 36.76 193.234 37.1C193.234 37.44 192.838 38.1483 192.044 39.225C187.001 45.9117 182.326 49.255 178.019 49.255C176.659 49.255 175.979 48.7167 175.979 47.64C175.979 45.6567 177.084 42.9367 179.294 39.48C177.311 41.5767 175.044 43.73 172.494 45.94C169.944 48.0933 167.564 49.17 165.354 49.17C164.334 49.17 163.824 48.5467 163.824 47.3C163.824 47.0167 163.853 46.8183 163.909 46.705C164.306 43.475 165.609 40.075 167.819 36.505C172.239 29.365 176.829 25.795 181.589 25.795H191.364C191.648 25.795 191.789 25.9083 191.789 26.135C191.789 26.5883 191.534 26.815 191.024 26.815C190.231 26.815 189.239 27.75 188.049 29.62C186.859 31.4333 185.273 34.2667 183.289 38.12C181.363 41.9167 180.399 44.325 180.399 45.345C180.399 46.3083 180.796 46.79 181.589 46.79C182.893 46.79 184.706 45.6567 187.029 43.39C188.276 42.0867 189.211 41.0667 189.834 40.33C190.458 39.5933 190.854 39.1117 191.024 38.885C191.251 38.6583 191.931 37.8367 193.064 36.42ZM183.969 28.515C183.969 27.4383 183.233 26.9 181.759 26.9C180.343 26.9 178.756 27.7217 176.999 29.365C175.243 31.0083 173.316 33.6717 171.219 37.355C169.179 40.9817 168.159 43.6167 168.159 45.26C168.159 45.94 168.386 46.28 168.839 46.28C170.483 46.28 173.401 43.7867 177.594 38.8C181.844 33.7567 183.969 30.3283 183.969 28.515ZM64.4733 117.765C61.0733 117.765 59.3733 116.065 59.3733 112.665C59.3733 110.852 59.7699 108.925 60.5633 106.885C61.3566 104.845 61.9233 103.372 62.2633 102.465C62.8866 100.935 64.105 98.385 65.9183 94.815C68.7516 88.8083 70.99 84.445 72.6333 81.725L48.1533 107.565C47.9833 108.642 47.2466 109.435 45.9433 109.945C45.3766 110.172 44.385 111.135 42.9683 112.835C42.9116 112.892 42.7983 112.92 42.6283 112.92C42.4583 112.92 42.2883 112.863 42.1183 112.75C42.005 112.637 41.9766 112.552 42.0333 112.495C43.5066 110.625 44.2716 108.047 44.3283 104.76L44.8383 80.025C44.8383 77.5317 45.5183 75.4633 46.8783 73.82C44.6116 75.52 42.9116 77.5317 41.7783 79.855C41.3249 80.7617 40.1066 83.7367 38.1233 88.78C33.5899 100 29.2266 107.848 25.0333 112.325C23.6166 113.855 21.8033 115.158 19.5933 116.235C17.3833 117.312 15.3433 117.85 13.4733 117.85C11.6033 117.85 9.90328 117.34 8.37328 116.32C5.53995 114.393 4.12328 111.305 4.12328 107.055C4.12328 106.318 4.23661 105.922 4.46328 105.865C4.85995 105.808 5.05828 106.035 5.05828 106.545C5.05828 109.152 5.68161 111.163 6.92828 112.58C8.23161 113.94 9.93161 114.62 12.0283 114.62C15.6549 114.62 19.2816 112.608 22.9083 108.585C25.9683 105.298 28.7733 101.417 31.3233 96.94C32.0599 95.6367 32.5983 94.7017 32.9383 94.135C33.2783 93.5117 33.8166 92.435 34.5533 90.905C35.2899 89.375 35.7716 88.3833 35.9983 87.93C37.7549 84.1333 38.775 81.9233 39.0583 81.3C41.155 76.7667 44.1016 73.9333 47.8983 72.8L47.9833 72.715H43.3083C34.2983 72.715 28.9149 74.0183 27.1583 76.625C26.6483 77.4183 26.3933 78.1833 26.3933 78.92C26.3933 81.4133 27.2999 83.085 29.1133 83.935C29.5099 84.105 29.4816 84.3033 29.0283 84.53C28.6316 84.7567 28.1783 84.7567 27.6683 84.53C27.2149 84.2467 26.4499 83.51 25.3733 82.32C23.8433 80.5067 23.0783 78.92 23.0783 77.56C23.0783 76.2 23.5033 75.01 24.3533 73.99C25.2599 72.97 27.0733 72.2333 29.7933 71.78C33.7033 71.0433 38.1516 70.675 43.1383 70.675C43.3083 70.675 43.4216 70.675 43.4783 70.675H52.6583C53.1116 70.6183 53.055 70.8167 52.4883 71.27C51.9783 71.7233 51.6666 71.95 51.5533 71.95C48.8333 72.5167 47.4733 74.9533 47.4733 79.26C47.4733 83.5667 47.7 92.1233 48.1533 104.93V105.44L77.6483 74.33C79.915 71.95 81.8416 70.2217 83.4283 69.145C85.0716 68.0117 86.6866 67.445 88.2733 67.445C88.84 67.445 89.1233 67.5017 89.1233 67.615C89.1233 67.6717 89.01 67.8417 88.7833 68.125C88.5 68.4083 88.2166 68.55 87.9333 68.55C85.5533 68.55 83.145 70.5333 80.7083 74.5C77.365 79.9967 73.71 87.1367 69.7433 95.92C65.7766 104.703 63.7933 110.625 63.7933 113.685C63.7933 115.272 64.3316 116.065 65.4083 116.065C65.805 116.065 66.5699 115.838 67.7033 115.385C68.8933 114.875 70.0266 114.11 71.1033 113.09C72.2366 112.07 73.1716 111.135 73.9083 110.285C74.645 109.435 75.24 108.727 75.6933 108.16C76.1466 107.593 76.5716 107.027 76.9683 106.46C77.4216 105.893 77.6766 105.582 77.7333 105.525C78.0733 105.015 78.3 104.987 78.4133 105.44C78.5266 105.837 78.47 106.177 78.2433 106.46C78.0733 106.687 77.7333 107.14 77.2233 107.82C76.7133 108.5 76.2316 109.095 75.7783 109.605C75.3816 110.115 74.815 110.795 74.0783 111.645C73.3983 112.438 72.7466 113.147 72.1233 113.77C69.29 116.433 66.74 117.765 64.4733 117.765ZM81.3099 106.885C80.4599 109.095 80.0349 111.163 80.0349 113.09C80.0349 114.96 81.1966 115.895 83.5199 115.895C84.3699 115.895 85.4749 115.64 86.8349 115.13C89.0449 114.393 91.3399 112.977 93.7199 110.88C96.0999 108.783 98.0549 106.743 99.5849 104.76C99.7549 104.93 99.8399 105.157 99.8399 105.44C99.8399 105.723 99.6416 106.148 99.2449 106.715C97.1483 109.605 94.5416 112.155 91.4249 114.365C88.3083 116.575 85.1349 117.68 81.9049 117.68C77.7116 117.68 75.6149 116.15 75.6149 113.09C75.6149 110.653 76.9183 107.282 79.5249 102.975C80.9983 100.652 83.0949 98.4983 85.8149 96.515C88.5349 94.475 91.1416 93.455 93.6349 93.455C96.1283 93.455 97.3749 94.645 97.3749 97.025C97.3749 99.5183 96.3833 101.417 94.3999 102.72C92.4733 103.967 90.2633 104.987 87.7699 105.78C85.3333 106.517 83.1799 106.885 81.3099 106.885ZM81.9899 105.185C82.3299 105.185 82.9533 105.185 83.8599 105.185C84.8233 105.185 85.9566 104.987 87.2599 104.59C90.4899 103.627 92.5866 101.813 93.5499 99.15C93.8333 98.3567 93.9749 97.62 93.9749 96.94C93.9749 96.2033 93.7483 95.6933 93.2949 95.41C92.8416 95.07 92.4449 94.9 92.1049 94.9C88.4216 94.9567 85.0499 98.385 81.9899 105.185ZM145.402 70.93C145.345 70.93 145.26 70.8733 145.147 70.76C144.92 69.4 144.07 68.4367 142.597 67.87C141.917 67.6433 141.18 67.53 140.387 67.53C139.594 67.53 138.715 67.7 137.752 68.04C135.032 69.0033 132.029 72.4033 128.742 78.24C125.455 84.0767 122.055 90.8767 118.542 98.64C118.485 98.6967 117.805 100.085 116.502 102.805C113.612 108.812 112.167 112.325 112.167 113.345C112.167 114.308 112.507 114.79 113.187 114.79C114.434 114.79 116.36 113.515 118.967 110.965C121.63 108.358 123.585 106.177 124.832 104.42C124.945 104.533 125.002 104.788 125.002 105.185C125.002 105.525 124.605 106.205 123.812 107.225C118.769 113.912 114.094 117.255 109.787 117.255C108.427 117.255 107.747 116.717 107.747 115.64C107.747 113.657 108.852 110.937 111.062 107.48C109.079 109.577 107.01 111.56 104.857 113.43C101.797 115.923 99.2186 117.17 97.1219 117.17C96.1019 117.17 95.5919 116.547 95.5919 115.3C95.5919 115.017 95.6202 114.818 95.6769 114.705C96.0736 111.532 97.3769 108.132 99.5869 104.505C101.854 100.878 104.319 98.045 106.982 96.005C108.795 94.5317 110.977 93.795 113.527 93.795C114.83 93.795 116.134 93.795 117.437 93.795C118.344 92.265 119.789 89.63 121.772 85.89C123.755 82.0933 125.172 79.4867 126.022 78.07C131.179 69.3433 136.874 64.98 143.107 64.98C143.9 64.98 144.58 65.2067 145.147 65.66C145.77 66.1133 146.054 66.7367 145.997 67.53L145.827 70.59C145.827 70.8167 145.685 70.93 145.402 70.93ZM115.737 96.515C115.737 95.4383 115 94.9 113.527 94.9C112.11 94.9 110.524 95.7217 108.767 97.365C107.01 99.0083 105.084 101.672 102.987 105.355C100.947 108.982 99.9269 111.617 99.9269 113.26C99.9269 113.94 100.154 114.28 100.607 114.28C102.25 114.28 105.169 111.787 109.362 106.8C113.612 101.757 115.737 98.3283 115.737 96.515ZM136.132 111.985C135.056 113.175 133.554 114.365 131.627 115.555C129.757 116.688 128.029 117.255 126.442 117.255C124.912 117.255 124.147 116.717 124.147 115.64C124.147 114.62 124.431 113.487 124.997 112.24C125.394 111.333 127.661 106.517 131.797 97.79C128.794 101.02 126.074 104.25 123.637 107.48C123.241 108.047 123.042 107.99 123.042 107.31C123.042 106.857 123.184 106.46 123.467 106.12C127.491 101.133 130.579 97.0817 132.732 93.965C135.566 93.5683 137.266 93.115 137.832 92.605C138.399 92.095 138.711 92.0667 138.767 92.52C138.767 92.7467 138.626 93.03 138.342 93.37C138.116 93.6533 135.821 97.9033 131.457 106.12C129.531 109.747 128.567 112.24 128.567 113.6C128.567 114.393 128.964 114.79 129.757 114.79C131.514 114.79 134.687 112.07 139.277 106.63L141.147 104.505C141.827 105.185 140.156 107.678 136.132 111.985ZM140.892 84.53C139.532 84.53 138.852 83.7933 138.852 82.32C138.852 81.64 139.221 81.045 139.957 80.535C140.751 80.025 141.431 79.77 141.997 79.77C142.621 79.77 143.102 80.025 143.442 80.535C143.782 80.9883 143.952 81.3567 143.952 81.64C143.952 82.66 143.584 83.3967 142.847 83.85C142.111 84.3033 141.459 84.53 140.892 84.53ZM146.535 93.71L149.17 93.795C151.38 90.7917 153.59 86.8533 155.8 81.98C156.31 81.9233 157.103 81.6117 158.18 81.045C159.256 80.4217 160.021 79.8833 160.475 79.43C160.985 78.92 161.296 78.665 161.41 78.665C161.58 78.665 161.665 78.75 161.665 78.92C161.665 79.0333 161.438 79.345 160.985 79.855C160.531 80.365 159.398 82.065 157.585 84.955C155.828 87.7883 154.213 90.735 152.74 93.795H159.625C160.191 93.795 160.503 93.88 160.56 94.05C160.616 94.22 160.418 94.39 159.965 94.56C159.568 94.6733 159.171 94.7867 158.775 94.9C158.435 95.0133 157.641 95.1267 156.395 95.24C153.618 95.41 151.89 95.9767 151.21 96.94C150.586 97.8467 149.481 100.227 147.895 104.08C144.948 111.22 144.495 114.79 146.535 114.79C148.291 114.79 151.521 112.07 156.225 106.63L157.84 104.59C157.953 104.76 158.01 105.043 158.01 105.44C158.01 105.78 157.698 106.375 157.075 107.225C151.861 113.912 147.158 117.255 142.965 117.255C141.605 117.255 140.925 116.717 140.925 115.64C140.925 114.28 142.03 111.39 144.24 106.97L148.83 96.685C143.05 103.712 140.103 107.31 139.99 107.48C139.593 108.047 139.395 107.99 139.395 107.31C139.395 106.857 139.536 106.46 139.82 106.12C143.673 101.303 146.336 97.9317 147.81 96.005C147.3 96.005 145.77 96.1467 143.22 96.43C142.653 96.43 142.851 95.9767 143.815 95.07C144.835 94.1633 145.543 93.71 145.94 93.71H146.535ZM160.665 106.885C159.815 109.095 159.39 111.163 159.39 113.09C159.39 114.96 160.552 115.895 162.875 115.895C163.725 115.895 164.83 115.64 166.19 115.13C168.4 114.393 170.695 112.977 173.075 110.88C175.455 108.783 177.41 106.743 178.94 104.76C179.11 104.93 179.195 105.157 179.195 105.44C179.195 105.723 178.997 106.148 178.6 106.715C176.504 109.605 173.897 112.155 170.78 114.365C167.664 116.575 164.49 117.68 161.26 117.68C157.067 117.68 154.97 116.15 154.97 113.09C154.97 110.653 156.274 107.282 158.88 102.975C160.354 100.652 162.45 98.4983 165.17 96.515C167.89 94.475 170.497 93.455 172.99 93.455C175.484 93.455 176.73 94.645 176.73 97.025C176.73 99.5183 175.739 101.417 173.755 102.72C171.829 103.967 169.619 104.987 167.125 105.78C164.689 106.517 162.535 106.885 160.665 106.885ZM161.345 105.185C161.685 105.185 162.309 105.185 163.215 105.185C164.179 105.185 165.312 104.987 166.615 104.59C169.845 103.627 171.942 101.813 172.905 99.15C173.189 98.3567 173.33 97.62 173.33 96.94C173.33 96.2033 173.104 95.6933 172.65 95.41C172.197 95.07 171.8 94.9 171.46 94.9C167.777 94.9567 164.405 98.385 161.345 105.185ZM199.682 100.17C199.682 97.5633 198.861 96.26 197.217 96.26C195.631 96.26 193.336 97.9883 190.332 101.445C187.386 104.845 185.147 108.5 183.617 112.41L181.832 117.17C181.492 117.17 180.812 117.34 179.792 117.68C178.772 118.02 178.234 118.19 178.177 118.19C177.894 118.19 177.866 117.935 178.092 117.425C178.376 116.915 178.857 115.81 179.537 114.11C180.274 112.41 181.152 110.257 182.172 107.65C184.156 102.663 185.487 99.3767 186.167 97.79C183.164 101.02 180.444 104.25 178.007 107.48C177.611 108.047 177.412 107.99 177.412 107.31C177.412 106.857 177.554 106.46 177.837 106.12C181.861 101.133 184.949 97.0817 187.102 93.965C189.936 93.5683 191.579 93.1717 192.032 92.775C192.486 92.3783 192.769 92.18 192.882 92.18C192.996 92.18 193.052 92.2933 193.052 92.52C193.109 92.7467 192.967 93.0583 192.627 93.455C192.287 93.8517 190.389 97.2233 186.932 103.57C188.462 101.247 190.389 98.9517 192.712 96.685C195.092 94.4183 197.104 93.285 198.747 93.285C200.447 93.285 201.552 93.9933 202.062 95.41C202.289 95.6933 202.402 96.005 202.402 96.345C202.402 96.685 202.346 97.1383 202.232 97.705C202.119 98.215 202.006 98.64 201.892 98.98C201.269 100.397 200.816 101.247 200.532 101.53C200.362 101.813 200.079 101.983 199.682 102.04C199.626 101.983 199.569 101.927 199.512 101.87C199.626 101.247 199.682 100.68 199.682 100.17ZM222.842 100.17C222.842 97.5633 222.02 96.26 220.377 96.26C218.79 96.26 216.495 97.9883 213.492 101.445C210.545 104.845 208.307 108.5 206.777 112.41L204.992 117.17C204.652 117.17 203.972 117.34 202.952 117.68C201.932 118.02 201.393 118.19 201.337 118.19C201.053 118.19 201.025 117.935 201.252 117.425C201.535 116.915 202.017 115.81 202.697 114.11C203.433 112.41 204.312 110.257 205.332 107.65C207.315 102.663 208.647 99.3767 209.327 97.79C206.323 101.02 203.603 104.25 201.167 107.48C200.77 108.047 200.572 107.99 200.572 107.31C200.572 106.857 200.713 106.46 200.997 106.12C205.02 101.133 208.108 97.0817 210.262 93.965C213.095 93.5683 214.738 93.1717 215.192 92.775C215.645 92.3783 215.928 92.18 216.042 92.18C216.155 92.18 216.212 92.2933 216.212 92.52C216.268 92.7467 216.127 93.0583 215.787 93.455C215.447 93.8517 213.548 97.2233 210.092 103.57C211.622 101.247 213.548 98.9517 215.872 96.685C218.252 94.4183 220.263 93.285 221.907 93.285C223.607 93.285 224.712 93.9933 225.222 95.41C225.448 95.6933 225.562 96.005 225.562 96.345C225.562 96.685 225.505 97.1383 225.392 97.705C225.278 98.215 225.165 98.64 225.052 98.98C224.428 100.397 223.975 101.247 223.692 101.53C223.522 101.813 223.238 101.983 222.842 102.04C222.785 101.983 222.728 101.927 222.672 101.87C222.785 101.247 222.842 100.68 222.842 100.17ZM250.506 104.42C250.619 104.533 250.676 104.76 250.676 105.1C250.676 105.44 250.279 106.148 249.486 107.225C244.442 113.912 239.767 117.255 235.461 117.255C234.101 117.255 233.421 116.717 233.421 115.64C233.421 113.657 234.526 110.937 236.736 107.48C234.752 109.577 232.486 111.73 229.936 113.94C227.386 116.093 225.006 117.17 222.796 117.17C221.776 117.17 221.266 116.547 221.266 115.3C221.266 115.017 221.294 114.818 221.351 114.705C221.747 111.475 223.051 108.075 225.261 104.505C229.681 97.365 234.271 93.795 239.031 93.795H248.806C249.089 93.795 249.231 93.9083 249.231 94.135C249.231 94.5883 248.976 94.815 248.466 94.815C247.672 94.815 246.681 95.75 245.491 97.62C244.301 99.4333 242.714 102.267 240.731 106.12C238.804 109.917 237.841 112.325 237.841 113.345C237.841 114.308 238.237 114.79 239.031 114.79C240.334 114.79 242.147 113.657 244.471 111.39C245.717 110.087 246.652 109.067 247.276 108.33C247.899 107.593 248.296 107.112 248.466 106.885C248.692 106.658 249.372 105.837 250.506 104.42ZM241.411 96.515C241.411 95.4383 240.674 94.9 239.201 94.9C237.784 94.9 236.197 95.7217 234.441 97.365C232.684 99.0083 230.757 101.672 228.661 105.355C226.621 108.982 225.601 111.617 225.601 113.26C225.601 113.94 225.827 114.28 226.281 114.28C227.924 114.28 230.842 111.787 235.036 106.8C239.286 101.757 241.411 98.3283 241.411 96.515ZM274.641 94.985C274.641 95.7217 274.159 96.77 273.196 98.13C272.289 99.49 270.901 102.068 269.031 105.865C267.161 109.605 266.226 111.985 266.226 113.005C266.226 113.968 266.623 114.45 267.416 114.45C268.266 114.45 269.343 113.94 270.646 112.92C272.006 111.843 273.196 110.71 274.216 109.52C275.293 108.33 276.709 106.658 278.466 104.505C278.579 104.675 278.636 104.93 278.636 105.27C278.636 105.61 278.268 106.262 277.531 107.225C274.641 111.135 272.204 113.855 270.221 115.385C268.238 116.915 266.453 117.68 264.866 117.68C263.053 117.68 262.146 116.802 262.146 115.045C262.146 113.232 263.053 110.512 264.866 106.885C266.736 103.202 268.238 100.113 269.371 97.62C269.938 96.43 269.541 96.2033 268.181 96.94C261.721 100.963 256.706 107.707 253.136 117.17C252.796 117.17 252.116 117.34 251.096 117.68C250.133 118.077 249.566 118.275 249.396 118.275C249.169 118.275 249.169 117.992 249.396 117.425C249.679 116.915 250.161 115.81 250.841 114.11C251.578 112.41 252.456 110.257 253.476 107.65C255.459 102.663 256.791 99.3767 257.471 97.79C254.468 101.02 251.748 104.25 249.311 107.48C248.914 108.047 248.716 107.99 248.716 107.31C248.716 106.857 248.858 106.46 249.141 106.12C253.164 101.133 256.253 97.0817 258.406 93.965C261.239 93.5683 262.883 93.1717 263.336 92.775C263.789 92.3783 264.073 92.18 264.186 92.18C264.299 92.18 264.356 92.2933 264.356 92.52C264.413 92.7467 264.243 93.0867 263.846 93.54C263.506 93.9367 261.296 97.9317 257.216 105.525C259.936 101.955 263.109 98.81 266.736 96.09C269.059 94.39 270.958 93.54 272.431 93.54C273.904 93.54 274.641 94.0217 274.641 94.985ZM281.193 106.885C280.343 109.095 279.918 111.163 279.918 113.09C279.918 114.96 281.079 115.895 283.403 115.895C284.253 115.895 285.358 115.64 286.718 115.13C288.928 114.393 291.223 112.977 293.603 110.88C295.983 108.783 297.938 106.743 299.468 104.76C299.638 104.93 299.723 105.157 299.723 105.44C299.723 105.723 299.524 106.148 299.128 106.715C297.031 109.605 294.424 112.155 291.308 114.365C288.191 116.575 285.018 117.68 281.788 117.68C277.594 117.68 275.498 116.15 275.498 113.09C275.498 110.653 276.801 107.282 279.408 102.975C280.881 100.652 282.978 98.4983 285.698 96.515C288.418 94.475 291.024 93.455 293.518 93.455C296.011 93.455 297.258 94.645 297.258 97.025C297.258 99.5183 296.266 101.417 294.283 102.72C292.356 103.967 290.146 104.987 287.653 105.78C285.216 106.517 283.063 106.885 281.193 106.885ZM281.873 105.185C282.213 105.185 282.836 105.185 283.743 105.185C284.706 105.185 285.839 104.987 287.143 104.59C290.373 103.627 292.469 101.813 293.433 99.15C293.716 98.3567 293.858 97.62 293.858 96.94C293.858 96.2033 293.631 95.6933 293.178 95.41C292.724 95.07 292.328 94.9 291.988 94.9C288.304 94.9567 284.933 98.385 281.873 105.185ZM302.36 106.885C301.51 109.095 301.085 111.163 301.085 113.09C301.085 114.96 302.246 115.895 304.57 115.895C305.42 115.895 306.525 115.64 307.885 115.13C310.095 114.393 312.39 112.977 314.77 110.88C317.15 108.783 319.105 106.743 320.635 104.76C320.805 104.93 320.89 105.157 320.89 105.44C320.89 105.723 320.691 106.148 320.295 106.715C318.198 109.605 315.591 112.155 312.475 114.365C309.358 116.575 306.185 117.68 302.955 117.68C298.761 117.68 296.665 116.15 296.665 113.09C296.665 110.653 297.968 107.282 300.575 102.975C302.048 100.652 304.145 98.4983 306.865 96.515C309.585 94.475 312.191 93.455 314.685 93.455C317.178 93.455 318.425 94.645 318.425 97.025C318.425 99.5183 317.433 101.417 315.45 102.72C313.523 103.967 311.313 104.987 308.82 105.78C306.383 106.517 304.23 106.885 302.36 106.885ZM303.04 105.185C303.38 105.185 304.003 105.185 304.91 105.185C305.873 105.185 307.006 104.987 308.31 104.59C311.54 103.627 313.636 101.813 314.6 99.15C314.883 98.3567 315.025 97.62 315.025 96.94C315.025 96.2033 314.798 95.6933 314.345 95.41C313.891 95.07 313.495 94.9 313.155 94.9C309.471 94.9567 306.1 98.385 303.04 105.185Z" fill="black"/>
</g>
<defs>
<linearGradient id="paint0_linear" x1="94.5" y1="0.500002" x2="224.5" y2="103.5" gradientUnits="userSpaceOnUse">
<stop stop-color="#102334"/>
<stop offset="1" stop-color="#6F9FCB"/>
</linearGradient>
<linearGradient id="paint1_linear" x1="136" y1="54" x2="155.5" y2="31" gradientUnits="userSpaceOnUse">
<stop stop-color="#74690D"/>
<stop offset="0.244792" stop-color="#284409" stop-opacity="0.999418"/>
<stop offset="0.798328" stop-color="#2D4711" stop-opacity="0.996667"/>
<stop offset="1" stop-color="#606544" stop-opacity="0.99"/>
<stop offset="1" stop-color="#606544" stop-opacity="0.99"/>
</linearGradient>
<linearGradient id="paint2_linear" x1="117" y1="42" x2="125" y2="42" gradientUnits="userSpaceOnUse">
<stop stop-color="#4F4C30"/>
<stop offset="1" stop-color="#547B42"/>
</linearGradient>
<linearGradient id="paint3_linear" x1="100" y1="87" x2="117.5" y2="114.5" gradientUnits="userSpaceOnUse">
<stop stop-color="#547B42"/>
<stop offset="0.145833" stop-color="#E3CA89" stop-opacity="0.885417"/>
<stop offset="1" stop-color="#B29547"/>
</linearGradient>
<linearGradient id="paint4_linear" x1="208" y1="81.5" x2="206" y2="146" gradientUnits="userSpaceOnUse">
<stop stop-color="#587113"/>
<stop offset="0.0904877" stop-color="#E3CA89" stop-opacity="0.885417"/>
<stop offset="1" stop-color="#A58566"/>
</linearGradient>
<linearGradient id="paint5_linear" x1="145.866" y1="91.8341" x2="163.847" y2="151.18" gradientUnits="userSpaceOnUse">
<stop stop-color="#B9A570"/>
<stop offset="1" stop-color="#B29547"/>
</linearGradient>
<linearGradient id="paint6_linear" x1="110.073" y1="82.2798" x2="119.476" y2="113.314" gradientUnits="userSpaceOnUse">
<stop stop-color="#678A44"/>
<stop offset="0.109375" stop-color="#C4B691"/>
<stop offset="1" stop-color="#B9A570"/>
</linearGradient>
<clipPath id="clip0">
<rect width="320" height="135" fill="white"/>
</clipPath>
<clipPath id="clip1">
<rect x="98" y="5" width="125" height="125" rx="62.5" fill="white"/>
</clipPath>
<clipPath id="clip2">
<rect width="60" height="70" fill="white" transform="translate(109 -5.92871) rotate(-0.0680739)"/>
</clipPath>
</defs>
</svg>
