<svg xmlns="http://www.w3.org/2000/svg" viewBox="0 0 1440 500" fill="url(#MyGradient)">
	<defs>
		<linearGradient id="MyGradient">
			<stop offset="0" stop-color="var(--top1)" />
			<stop offset="100%" stop-color="var(--top2)" />
		</linearGradient>
	</defs>
	<path
	height="180"
	fill-opacity="1"
	d="M0,128L48,144C96,160,192,192,288,197.3C384,203,480,181,576,149.3C672,117,768,75,864,85.3C960,96,1056,160,1152,176C1248,192,1344,160,1392,144L1440,128L1440,320L1392,320C1344,320,1248,320,1152,320C1056,320,960,320,864,320C768,320,672,320,576,320C480,320,384,320,288,320C192,320,96,320,48,320L0,320Z"
	/>
	<rect y="319.5" width="1440" height="100%" />
</svg>