<svg id="visual" viewBox="0 0 960 540" width="960" height="540" xmlns="http://www.w3.org/2000/svg" xmlns:xlink="http://www.w3.org/1999/xlink" version="1.1"><path d="M0 379L13.3 368.5C26.7 358 53.3 337 80 335C106.7 333 133.3 350 160 350C186.7 350 213.3 333 240 329.5C266.7 326 293.3 336 320 348C346.7 360 373.3 374 400 365.2C426.7 356.3 453.3 324.7 480 314C506.7 303.3 533.3 313.7 560 325.7C586.7 337.7 613.3 351.3 640 353.2C666.7 355 693.3 345 720 345C746.7 345 773.3 355 800 347.7C826.7 340.3 853.3 315.7 880 314.2C906.7 312.7 933.3 334.3 946.7 345.2L960 356L960 541L946.7 541C933.3 541 906.7 541 880 541C853.3 541 826.7 541 800 541C773.3 541 746.7 541 720 541C693.3 541 666.7 541 640 541C613.3 541 586.7 541 560 541C533.3 541 506.7 541 480 541C453.3 541 426.7 541 400 541C373.3 541 346.7 541 320 541C293.3 541 266.7 541 240 541C213.3 541 186.7 541 160 541C133.3 541 106.7 541 80 541C53.3 541 26.7 541 13.3 541L0 541Z" fill="#062ba5"></path><path d="M0 320L13.3 330C26.7 340 53.3 360 80 367.7C106.7 375.3 133.3 370.7 160 368.8C186.7 367 213.3 368 240 363.3C266.7 358.7 293.3 348.3 320 347.3C346.7 346.3 373.3 354.7 400 362.2C426.7 369.7 453.3 376.3 480 386.3C506.7 396.3 533.3 409.7 560 400.3C586.7 391 613.3 359 640 352.2C666.7 345.3 693.3 363.7 720 375.7C746.7 387.7 773.3 393.3 800 384C826.7 374.7 853.3 350.3 880 354.5C906.7 358.7 933.3 391.3 946.7 407.7L960 424L960 541L946.7 541C933.3 541 906.7 541 880 541C853.3 541 826.7 541 800 541C773.3 541 746.7 541 720 541C693.3 541 666.7 541 640 541C613.3 541 586.7 541 560 541C533.3 541 506.7 541 480 541C453.3 541 426.7 541 400 541C373.3 541 346.7 541 320 541C293.3 541 266.7 541 240 541C213.3 541 186.7 541 160 541C133.3 541 106.7 541 80 541C53.3 541 26.7 541 13.3 541L0 541Z" fill="#1832b0"></path><path d="M0 391L13.3 391.5C26.7 392 53.3 393 80 389.7C106.7 386.3 133.3 378.7 160 386.2C186.7 393.7 213.3 416.3 240 427.5C266.7 438.7 293.3 438.3 320 433.7C346.7 429 373.3 420 400 407.5C426.7 395 453.3 379 480 378.2C506.7 377.3 533.3 391.7 560 399.2C586.7 406.7 613.3 407.3 640 408.8C666.7 410.3 693.3 412.7 720 414C746.7 415.3 773.3 415.7 800 411C826.7 406.3 853.3 396.7 880 402.2C906.7 407.7 933.3 428.3 946.7 438.7L960 449L960 541L946.7 541C933.3 541 906.7 541 880 541C853.3 541 826.7 541 800 541C773.3 541 746.7 541 720 541C693.3 541 666.7 541 640 541C613.3 541 586.7 541 560 541C533.3 541 506.7 541 480 541C453.3 541 426.7 541 400 541C373.3 541 346.7 541 320 541C293.3 541 266.7 541 240 541C213.3 541 186.7 541 160 541C133.3 541 106.7 541 80 541C53.3 541 26.7 541 13.3 541L0 541Z" fill="#2439bc"></path><path d="M0 418L13.3 420.7C26.7 423.3 53.3 428.7 80 429.2C106.7 429.7 133.3 425.3 160 428.8C186.7 432.3 213.3 443.7 240 446.3C266.7 449 293.3 443 320 435.2C346.7 427.3 373.3 417.7 400 410.8C426.7 404 453.3 400 480 400.5C506.7 401 533.3 406 560 417.8C586.7 429.7 613.3 448.3 640 447.5C666.7 446.7 693.3 426.3 720 424.7C746.7 423 773.3 440 800 447.2C826.7 454.3 853.3 451.7 880 445.8C906.7 440 933.3 431 946.7 426.5L960 422L960 541L946.7 541C933.3 541 906.7 541 880 541C853.3 541 826.7 541 800 541C773.3 541 746.7 541 720 541C693.3 541 666.7 541 640 541C613.3 541 586.7 541 560 541C533.3 541 506.7 541 480 541C453.3 541 426.7 541 400 541C373.3 541 346.7 541 320 541C293.3 541 266.7 541 240 541C213.3 541 186.7 541 160 541C133.3 541 106.7 541 80 541C53.3 541 26.7 541 13.3 541L0 541Z" fill="#2e41c8"></path><path d="M0 443L13.3 446.7C26.7 450.3 53.3 457.7 80 462.2C106.7 466.7 133.3 468.3 160 467C186.7 465.7 213.3 461.3 240 460.8C266.7 460.3 293.3 463.7 320 466.2C346.7 468.7 373.3 470.3 400 473C426.7 475.7 453.3 479.3 480 476.5C506.7 473.7 533.3 464.3 560 459.2C586.7 454 613.3 453 640 455.5C666.7 458 693.3 464 720 462.3C746.7 460.7 773.3 451.3 800 445.7C826.7 440 853.3 438 880 436.5C906.7 435 933.3 434 946.7 433.5L960 433L960 541L946.7 541C933.3 541 906.7 541 880 541C853.3 541 826.7 541 800 541C773.3 541 746.7 541 720 541C693.3 541 666.7 541 640 541C613.3 541 586.7 541 560 541C533.3 541 506.7 541 480 541C453.3 541 426.7 541 400 541C373.3 541 346.7 541 320 541C293.3 541 266.7 541 240 541C213.3 541 186.7 541 160 541C133.3 541 106.7 541 80 541C53.3 541 26.7 541 13.3 541L0 541Z" fill="#3748d4"></path><path d="M0 482L13.3 486.7C26.7 491.3 53.3 500.7 80 504.3C106.7 508 133.3 506 160 502.8C186.7 499.7 213.3 495.3 240 490C266.7 484.7 293.3 478.3 320 477.2C346.7 476 373.3 480 400 480.5C426.7 481 453.3 478 480 478.7C506.7 479.3 533.3 483.7 560 487.7C586.7 491.7 613.3 495.3 640 500C666.7 504.7 693.3 510.3 720 510.3C746.7 510.3 773.3 504.7 800 501.2C826.7 497.7 853.3 496.3 880 492.3C906.7 488.3 933.3 481.7 946.7 478.3L960 475L960 541L946.7 541C933.3 541 906.7 541 880 541C853.3 541 826.7 541 800 541C773.3 541 746.7 541 720 541C693.3 541 666.7 541 640 541C613.3 541 586.7 541 560 541C533.3 541 506.7 541 480 541C453.3 541 426.7 541 400 541C373.3 541 346.7 541 320 541C293.3 541 266.7 541 240 541C213.3 541 186.7 541 160 541C133.3 541 106.7 541 80 541C53.3 541 26.7 541 13.3 541L0 541Z" fill="#4050e0"></path></svg>